<?xml version="1.0" encoding="UTF-8"?>
<svg id="Layer_1" data-name="Layer 1" xmlns="http://www.w3.org/2000/svg" viewBox="0 0 500 500">
  <defs>
    <style>
      .cls-1 {
        fill: #040303;
      }

      .cls-2 {
        fill: #050505;
      }

      .cls-3 {
        fill: #020202;
      }

      .cls-4 {
        fill: #020101;
      }

      .cls-5 {
        fill: #070606;
      }
    </style>
  </defs>
  <path class="cls-4" d="m40.54,152.95c82.98-3.4,166.09,6.31,248.82-2.11,0,0,0-.2,0-.2,19.33.34,38.67.02,58,.02,38.39,4.55,78.89,1.51,118.16,2.28,7.18,1.52,21.23-2.07,19.01,10.22.11,30.34,2.01,60.64.02,90.95.04,17.57-2.27,34.72-5.01,51.77-.45,9.86-13.11,5.89-19.71,6.15-58.65-.63-118.94-1.09-178.31-.77-87.53-1.48-177.79,12.88-264.46-1.1-1.87-33.5,1.63-67.08-1.73-100.81,2.84-16.52-5.83-43.3,4.16-54.85,6.54-.65,14.12-1.59,21.04-1.55Zm88.77,19.66c-26.65,3.94-52.1.84-78.57-.15l.1-.22c-35.36-12.8-12.07,100.27-16.01,122.99,69.4,3.91,139.49-3.56,209.18-3.62l-.14.25c52.23,10.3,11.2-23.41,39.54-17.29,8.62.55,3.87,13.37,5.5,19.3,25.28,6.1,53.6-.49,80,.2l-.09-.08c20.17-.24,40.29-.13,60.34,2.29h-.04c9.63-1.79,29.81,3.97,33.91-5.09.07-39.48.34-78.95,1.9-118.4-24.26-3.71-50.65-.16-75.63-1.43l.11-.18c-65.26-4.75-131.11,2.87-196.67,1.34l.11-.25c-17.06-1.77-35.34-1.73-52.41-.04l.1.22c-3.75.05-7.49.1-11.24.15Z"/>
  <path class="cls-1" d="m150.65,256.74c-1.53-17.51.27-35.22-.03-53.36,14.68-2.4,40.76-4.36,44.59,14.35.86,9.32-1.01,18.57-11.69,21.22,4.86,5.92,9.54,11.61,14.57,17.73-15.16,6.1-22.86-6.67-31.65-16.32.25,10.93-3.04,20.43-15.79,16.38Zm27.49-31.98c11-4.9-7.79-10.83-12.53-6.74-1.93,8.87,6.03,9.64,12.53,6.74Z"/>
  <path class="cls-2" d="m79.09,258.91c-3-12.85,11.01-24.22,12.97-37.23,3.19-8.05,7.15-22.35,18.53-18.44,8.08,16.25,20.26,35.76,21.68,54.19-18.7,6.58-12.5-19.57-28.27-13.5-14.08.63-3.75,19.1-24.9,14.97Zm27.74-36.36c-1.12,2.52-1.98,4.45-3.11,6.99,2.57-.17,4.31-.28,6.6-.43-1.24-2.32-2.18-4.09-3.49-6.56Z"/>
  <path class="cls-5" d="m317.92,240.54c18.73,16.36,30.08-2.9.63-8.87-35.47-18.38,29.57-48.22,28.76-11.43-9.98,3.18-17.86-9.48-25.02-2.22,4.9,6.27,12.87,7.01,19.68,9.98,20.19,11.6.24,35.6-17.46,30.9-13.72,2.44-29.14-21.97-6.59-18.35Z"/>
  <path class="cls-3" d="m250.61,216.77h-4.08c-1.11,10.2,6.63,38.16-3.62,42-3.86-3.45-11.82,3.94-11.58-4.09-1.82-11.51,4.52-29.78-2.49-37.97-4.41-.84-11.33,2.17-14.32-1.58-4.3-21.09,37.91-7.46,51.78-10.68,6.02,12.79-6.63,11.58-15.69,12.33Z"/>
  <path class="cls-5" d="m387.06,258.78c-3.32-30.66-8.92-27.52-21.82-53.08,15.31-3.45,19.07,7.81,27.3,19.27,6.64-11.07,9.96-23.34,25.1-19.54,2.02,1.48.17,2.52-.49,3.6-22.45,23.54-10.99,52.34-30.09,49.75Z"/>
</svg>