<?xml version="1.0" encoding="UTF-8"?>
<svg id="Layer_1" data-name="Layer 1" xmlns="http://www.w3.org/2000/svg" viewBox="0 0 500 500">
  <defs>
    <style>
      .cls-1 {
        fill: #020202;
      }
    </style>
  </defs>
  <path class="cls-1" d="m244.91,265.24c-1.67,52.32,30.69,193.7-60.79,130.5-.69-44.95-1.28-89.9-1.09-134.86-3.26-8.33-19.51-3.91-27.11-2.55l.23.62c-9.55-8.64-3.87-27.2-5.76-39.29-.83-16.78,12.04-16.12,24.83-19.88,7.66-21.05,2.86-47.82,16.67-65.78-.24-.52.02-.67.5-.78-.34-1.8,2.65-3.89,3.61-5.65,2.61-3.08,5.74-5.54,9.04-7.84,0,0,.47.3.47.3l.24-.61c.38.15.68,0,.82-.38,9.48-5.77,21.22-5.76,31.79-8.49,15.97.98,35.45-6.89,49.87,2.67-.08.6.21.93.81.98,5.81,15.61,2.02,34.82-2.47,51-.72-.18-1.13.1-1.21.85l-.51-.17s-.24.48-.24.48c-11.26-.35-22.57-1.5-32.78,4-.47-.12-.75.06-.83.53-.7.51-1.18,1.53-2.11,1.55-28.49,59.47,70.02-13.01,33.71,86.34-12.62,1.25-25.38,2.3-37.96,4.21.09.74.17,1.49.26,2.23Z"/>
</svg>