<?xml version="1.0" encoding="UTF-8"?>
<svg id="Layer_1" data-name="Layer 1" xmlns="http://www.w3.org/2000/svg" viewBox="0 0 500 500">
  <defs>
    <style>
      .cls-1 {
        fill: #040303;
      }

      .cls-2 {
        fill: #050505;
      }

      .cls-3 {
        fill: #070606;
      }
    </style>
  </defs>
  <path class="cls-1" d="m159.01,107.37c70.4,3.74,148.4-21.66,214.77,7.36l.4-.37c2.06,1.35,4.02,2.86,5.96,4.36,3.7,3.36,7.33,7.6,10.81,10.6-.12.52.08.81.6.88,1.52,1.8,2.71,3.84,3.93,5.84,0,0-.23-.31-.23-.31.53.33,0,1.17.86,1.34,1.17,1.6,2.21,3.28,3.19,5,.19,1.68,2.22,3.15,2.87,5.04,0,0-.32.59-.32.59,12.2,76.22,14.61,165.45-8.75,239.5-.71.94-1.5,1.85-2.15,2.83-3.76,3.88-7.35,8.01-11.53,11.43-36.13,24.07-79.67,11.08-119.36,15.09-47.76,3.79-93.08,8.41-135.52-17.91-1.6-.72-3.14-1.63-4.79-2.22-1.39-.81-2.79-1.61-4.17-2.42-.91-.73-1.82-1.47-2.73-2.19-.73-.75-1.55-1.46-2.22-2.28-26.59-43.46-28.38-184.82-6.6-230.23.59-2.06,1.17-4.11,1.76-6.17l.63.03s0-.63,0-.63c6.35-9.7,11.56-21.48,21.52-29.03,0,0,.1.41.1.41l.2-.56c1.44.09,2.05-2.09,3.5-2.66,2.4-2.11,4.93-4.06,7.41-6.06,0,0,.62.21.62.21l.2-.69c.5.17.81,0,.94-.51,5.31-3.58,12.22-3.82,18.1-6.29Zm149.24,22.98l.2-.38c-51.49,5.49-123.8-18.16-164.84,19.98-26.34,53.65-13.95,117.71-13.73,175.53-.04,36.49,37.13,59.94,70.68,59.22,54.02-2.98,132.62,27.05,166.28-27.97,17.49-30.79,9.38-69.35,14.15-103.43,4.9-54.5.17-130.21-72.73-122.95Z"/>
  <path class="cls-2" d="m237.2,341.27c-114.39-31.07-63.59-198.69,49.37-155.65,82.11,40.31,48.35,178.32-49.37,155.65Zm6.73-133.43c-53.85,5.52-60.25,82.84-10.02,98.95,86.9,12.18,99.44-103.88,10.02-98.95Z"/>
  <path class="cls-3" d="m354.27,178.6c3.21,24.13-40.93,26.96-41.43,1.38.46-27.42,42.25-35.53,41.43-1.38Z"/>
</svg>