<?xml version="1.0" encoding="UTF-8"?>
<svg id="Layer_1" data-name="Layer 1" xmlns="http://www.w3.org/2000/svg" viewBox="0 0 500 141.69">
  <defs>
    <style>
      .cls-1 {
        fill: #040404;
      }

      .cls-2 {
        fill: #010101;
      }

      .cls-3 {
        fill: #030303;
      }

      .cls-4 {
        fill: #020202;
      }

      .cls-5 {
        fill: #fff;
      }

      .cls-6 {
        fill: #8b8b8b;
      }

      .cls-7 {
        fill: #1a1a1a;
      }

      .cls-8 {
        fill: #575757;
      }

      .cls-9 {
        fill: #2f2f2f;
      }
    </style>
  </defs>
  <path class="cls-7" d="m372.02,124.08l.27.28-.27-.28Z"/>
  <g>
    <path d="m421.79,45.2c2.04-4.52,5.34-7.75,9.88-9.73,2.66-1.16,5.45-1.73,8.33-1.62,4.27.18,8.44.82,12.18,3.11,4.32,2.65,7.01,6.46,8.1,11.38.41,1.84,1.04,3.76.88,5.58-.21,2.36-.9,4.73-1.76,6.95-1.53,3.96-3.9,7.38-7.8,9.77.52.35.87.65,1.27.85,3.94,1.99,7.84,4.06,11.85,5.9,4.85,2.24,9.86,3.95,15.21,4.69,4.67.65,9.1.09,13.5-1.38.65-.22,1.36-.24,2.04-.36.05.19.1.38.15.58-1.43.52-2.85,1.09-4.29,1.57-3.93,1.31-7.97,2.07-12.13,2.15-4.74.09-9.23-1.08-13.52-2.94-3.69-1.6-7.3-3.41-10.89-5.23-1.83-.92-3.51-2.12-5.32-3.08-.51-.27-1.3-.31-1.86-.13-5.71,1.76-11.33,1.98-16.85-.66-5.8-2.77-9.08-7.47-10.58-13.58-1.08-4.39-.47-8.63.96-12.82.22-.34.44-.67.66-1.01Zm34.08,10c-.15-1.76-.16-3.54-.48-5.27-.77-4.15-2.38-7.85-5.74-10.67-3.1-2.6-6.63-3.47-10.59-3.52-6.35-.09-11.37,3.92-13.34,9.74-1.26,3.73-1.16,7.52-.68,11.37.86,6.93,5.9,14.18,13.54,15.51,5.14.9,11.07-1.28,13.99-5.5,2.47-3.56,3.28-7.45,3.3-11.66Z"/>
    <path class="cls-2" d="m58.64,73.9c-.92,0-1.85.03-2.77,0-2.26-.09-4.51-.24-6.77-.31-1.04-.03-1.53.01-1.33-1.48.28-2.09-.08-4.28-.25-6.42-.15-1.91-.44-3.8-.62-5.7-.5-5.23-.98-10.46-1.75-15.8-.75,1.51-1.51,3-2.24,4.52-1.78,3.73-3.56,7.46-5.33,11.2-2.02,4.26-4.02,8.52-6.05,12.77-.16.34-.49.6-.74.9-.32-.3-.76-.53-.95-.9-3.11-6.02-6.24-12.02-9.24-18.09-1.51-3.04-2.77-6.2-4.16-9.31-.06-.13-.24-.2-.52-.42-.24,1.72-.56,3.31-.65,4.92-.11,2,.05,4.02-.06,6.02-.08,1.4-.42,2.79-.63,4.18-.23,1.58-.48,3.15-.64,4.74-.17,1.76-.28,3.53-.33,5.29-.05,2.28.24,2.62,2.42,3.17.44.11.91.13,1.34.48H6.52c-.01-.11-.03-.22-.04-.33.27-.13.58-.42.81-.37,2.06.4,2.68-1,2.98-2.51.39-1.92.53-3.9.76-5.85.42-3.54.85-7.07,1.24-10.61.26-2.39.45-4.78.71-7.17.29-2.59.64-5.16.94-7.75.15-1.27.22-2.55.38-3.82.06-.49.25-.96.39-1.43.18-.04.36-.09.54-.13,5.47,11.09,10.94,22.18,16.51,33.49,2.71-5.75,5.34-11.36,7.99-16.95,2.44-5.15,4.88-10.29,7.35-15.43.13-.27.49-.43.75-.63.23.31.64.6.68.94.27,2.22.44,4.44.69,6.66.41,3.63.88,7.26,1.29,10.89.26,2.27.41,4.56.67,6.83.4,3.47.79,6.94,1.33,10.39.28,1.79,2.48,3.15,5.05,3.38.38.03.76.1,1.13.15,0,.17-.01.33-.02.5Z"/>
    <path class="cls-2" d="m193.77,73.65c3.16-.96,3.45-1.12,3.52-4.52.21-9.96.41-19.91.32-29.87-.03-3.06-.36-3.56-3.54-3.83-.32-.03-.62-.23-1.26-.48.53-.1.67-.15.81-.15,5.64-.1,11.28-.36,16.91-.22,4.51.11,9.04.58,13.13,2.83,5.88,3.24,9,8.16,9.25,14.94.18,4.7-.59,9.1-3.3,13.04-3.28,4.76-7.63,8.01-13.51,8.45-4.05.3-8.15.06-12.22.06-2.82,0-5.65.01-8.47-.01-.54,0-1.08-.15-1.63-.24Zm8.44-20.16c0,4.99.02,9.99-.01,14.98,0,1.34.54,2.33,1.71,2.8,1.2.48,2.49.74,3.76,1,3.41.69,6.81.57,10.06-.67,4.07-1.55,7.37-3.95,9.04-8.27,1.54-3.99,2-8.06,1.2-12.19-1.16-5.94-4.62-10.17-10.12-12.8-4.38-2.09-9.03-1.94-13.68-1.91-1.32.01-2.01.56-1.98,2.08.08,4.99.03,9.99.03,14.98Z"/>
    <path d="m143.81,42.56c0,5.16-.04,10.07.01,14.98.03,3.18.18,6.36.32,9.53.05,1.22.12,2.46.37,3.65.39,1.86,1.92,2.31,3.55,2.52.36.05.72,0,1.09,0,0,.13,0,.26,0,.4h-12.08v-.29c.33-.03.67-.05,1-.11,2.32-.41,2.77-.98,2.8-3.39.09-6.6.24-13.19.3-19.79.05-5.26,0-10.52,0-15.82,1.76-.39,2.3,1.11,3.12,1.93,1.84,1.86,3.48,3.93,5.27,5.84,2.51,2.68,5.11,5.28,7.62,7.96,4.24,4.52,8.45,9.07,12.67,13.62.88.95,1.71,1.97,2.56,2.95.16-.07.33-.14.49-.21-.11-.91-.25-1.82-.32-2.73-.06-.86-.06-1.73-.07-2.59-.11-7.2-.2-14.39-.33-21.59-.06-3.1-.66-3.69-3.76-3.99-.37-.04-.72-.21-1-.59h11.49c.02.1.04.2.06.3-.41.1-.82.26-1.23.29-1.65.11-2.27.69-2.28,2.38-.05,5.92-.04,11.84-.09,17.75-.05,5.75-.15,11.49-.26,17.24,0,.38-.24.84-.53,1.07-.13.11-.73-.14-.96-.38-5.33-5.4-10.67-10.79-15.94-16.24-2.93-3.02-5.76-6.14-8.6-9.25-1.48-1.61-2.87-3.31-4.34-4.93-.25-.27-.67-.39-.92-.53Z"/>
    <path class="cls-2" d="m328.9,34.8c1.45,0,2.9-.03,4.35,0,4.48.1,9-.06,13.45.39,6.11.61,9.32,5.96,7.76,11.96-.93,3.56-3.26,6.18-6.03,8.97,1.28,1.24,2.67,2.35,3.77,3.7,1.34,1.63,2.29,3.58,3.67,5.16,2.07,2.37,4.16,4.8,6.62,6.71,1.46,1.14,3.66,1.33,5.3,1.88-2.63,0-5.61.28-8.51-.09-2.28-.29-3.87-2.21-5.26-3.96-3-3.81-5.85-7.74-8.8-11.59-.27-.35-.89-.6-1.35-.61-2.01-.07-4.02-.03-6.26-.03,0,1.73,0,3.44,0,5.15,0,2.17,0,4.34,0,6.51,0,3.13.97,4.15,4.1,4.3.2.01.4.02.6.4h-13.21c.62-.41.84-.66,1.1-.7,2.28-.34,2.8-.83,2.83-3.21.14-9.74.23-19.48.31-29.23,0-1.06-.09-2.15-.36-3.17-.33-1.28-1.47-1.69-2.65-1.87-.48-.08-.98-.07-1.47-.09,0-.19.02-.38.03-.57Zm8.71,10.84c0,2.66-.04,5.32.03,7.98.01.47.41,1.27.73,1.32,1.88.34,3.8.75,5.68.64,1.87-.1,3.54-.81,4.74-2.65,2.07-3.17,1.81-6.52,1.22-9.89-.55-3.13-2.29-5.55-5.57-6.26-1.76-.38-3.63-.23-5.44-.37-1.08-.09-1.43.35-1.41,1.4.05,2.6.02,5.21.02,7.81Z"/>
    <path class="cls-2" d="m407.4,35.43v9.66c-.21.02-.41.05-.62.07-.21-.9-.49-1.79-.63-2.7-.47-3.13-2.53-4.7-5.39-5.35-2.41-.54-4.86-1.23-7.3-1.25-4.07-.03-8.28.45-11.37,3.38-2.49,2.36-4.25,5.36-4.69,8.98-.42,3.48-.72,6.96.39,10.32,2.08,6.32,6.18,10.92,12.66,12.82,4.69,1.37,9.59,1.82,13.82-1.39,1.19-.91,1.72-2.71,2.5-4.13.24-.43.31-.94.46-1.42.18.02.35.05.53.07-.11,1.3-.17,2.6-.35,3.89-.14,1.04-.4,2.06-.63,3.08-.41,1.79-1.81,2.46-4.35,2.71-3.21.32-6.48.51-9.69.32-5.08-.29-9.68-1.87-13.74-5.26-3.54-2.95-5.38-6.7-6.39-10.92-.8-3.34-.42-6.74.34-10.12.78-3.46,2.83-6.16,5.01-8.74,1.94-2.3,4.71-3.52,7.57-4.29,2.33-.63,4.74-1.11,7.13-1.28,2.23-.16,4.51.12,6.75.34,2.21.21,4.4.59,6.6.91.6.09,1.19.26,1.38.3Z"/>
    <path d="m279.82,45.16c-.2-.94-.46-1.88-.59-2.83-.4-2.89-2.4-4.45-4.88-5.17-2.56-.74-5.29-1.34-7.94-1.29-3.75.07-7.56.39-10.73,3-2.67,2.2-4.5,4.94-5.09,8.25-.72,4.05-1.02,8.24.5,12.19,2.73,7.06,7.69,11.54,15.42,12.66,3.23.47,6.29.26,9.33-.97,2.36-.96,3.34-2.85,4.02-5.06.16-.51.3-1.03.46-1.55l.54.1c-.12,1.31-.2,2.63-.38,3.94-.09.67-.35,1.32-.52,1.97-.69,2.65-1.87,3.68-4.52,3.8-3.23.15-6.48.44-9.7.29-5.65-.28-10.74-2.16-14.81-6.23-3.11-3.11-4.73-6.91-5.38-11.3-.83-5.53.38-10.54,3.41-15.03,2.24-3.31,5.49-5.68,9.41-6.77,2.42-.67,4.96-1.15,7.46-1.28,2.33-.12,4.69.3,7.02.53,2.06.2,4.11.5,6.18.69,1.23.11,2.39.16,1.53,1.91-.11.22-.04.53-.04.8,0,2.41,0,4.81,0,7.22-.24.04-.47.08-.71.12Z"/>
    <path class="cls-2" d="m70.03,65c-.04,2.9.93,5.3,3.54,6.64,2.73,1.41,5.6,1.53,8.35.02,2.37-1.31,3.44-3.4,3.53-6.15.08-2.45-.74-4.39-2.52-5.97-2.29-2.02-4.7-3.91-6.93-5.99-3.09-2.88-5.74-6.02-5.63-10.67.11-4.68,3.56-8.32,7.94-8.68,3.28-.27,6.62.11,9.84.2v7.51c-.45-.5-.74-.67-.74-.85-.14-3.29-1.81-4.81-5.4-5.24-2.61-.31-5.42-.37-7.07,2.3-2.01,3.24-1.66,5.63.89,8.33,2.26,2.39,5.06,4.26,7.58,6.41,3.13,2.66,5.62,5.75,5.89,10.05.27,4.18-2.24,9.02-6.82,10.69-4.05,1.47-7.99,1.23-11.96-.13-.99-.34-1.55-.98-1.46-2.17.16-2.08.18-4.18.25-6.26.24-.02.47-.03.71-.05Z"/>
    <path class="cls-2" d="m104.43,64.81c.22,1.25.27,2.25.59,3.15.96,2.7,3.22,4.52,6.37,4.63,2.37.09,4.58-.14,6.52-1.9,2.07-1.88,2.97-6.66,1.15-8.89-1.87-2.3-3.99-4.45-6.23-6.4-3.11-2.71-6.54-5.19-7.56-9.44-1.48-6.17,1.64-11.23,7.94-11.76,3.17-.27,6.4.16,9.66.27-.14,2.65-.26,4.9-.37,7.14l-.3.04c-.08-.25-.19-.5-.24-.75-.81-4.18-2.39-4.5-5.92-5.09-2.35-.39-4.7.02-6.43,2.01-2.05,2.36-1.94,6.04.58,8.46,2.51,2.41,5.29,4.53,7.94,6.8,4.79,4.12,6.51,8.2,5.07,13.76-1.28,4.97-5.69,7.47-10.44,7.68-2.65.12-5.33.22-7.81-1.11-.91-.49-1.38-1.04-1.29-2.12.16-1.92.22-3.85.35-5.78.01-.16.17-.31.42-.71Z"/>
    <path d="m318.11,66.81c-.37,2.09-.67,4.19-1.17,6.25-.09.38-1,.8-1.54.81-4.62.06-9.24.04-13.86.04-2.06,0-4.13.02-6.19-.01-.47,0-.94-.18-1.62-.32.38-.33.52-.54.7-.59,2.43-.57,3.01-1.2,3.04-3.67.11-9.75.2-19.5.28-29.25,0-.54-.04-1.08-.14-1.61-.45-2.35-1.21-2.96-3.61-3.01-.25,0-.5-.09-.73-.43h12.98c.02.07.04.13.06.2-.29.08-.58.23-.88.23-2.97.05-3.29.97-3.33,3.34-.11,8.24.04,16.49.11,24.73.01,1.57.09,3.14.15,4.71.08,2.02.77,3.13,2.78,3.37,2.66.32,5.37.43,8.04.26,2.22-.14,3.15-2.03,3.86-3.91.16-.42.31-.84.47-1.26.19.04.39.08.58.12Z"/>
    <path d="m121.29,97.29c-2.17,2.61-4.34,5.22-6.51,7.83-.47.57-.94,1.14-1.51,1.83-2.6-3.25-5.13-6.41-7.66-9.57-.12-.09-.24-.17-.36-.26-.04,5.53-.09,11.05-.13,16.58,0,.91,0,1.82,0,2.8h-2.52v-23.57c1.63-.49,2.69.12,3.73,1.5,2.18,2.89,4.56,5.64,7.06,8.68,2.16-2.76,4.25-5.4,6.3-8.08,1.13-1.47,2.22-2.91,4.49-2.06v23.24h-2.22c-.09-.09-.17-.18-.26-.27-.02-6.19-.05-12.37-.07-18.56-.06-.15-.11-.29-.17-.44-.05.12-.1.24-.16.36Z"/>
    <path class="cls-2" d="m231.38,116.25v-23.54c5.04.29,10.13-.75,14.94,1.41,3.45,1.55,5.59,4.07,6.19,7.97.53,3.47-.03,6.55-1.98,9.45-1.98,2.93-4.86,4.42-8.24,4.66-3.56.25-7.16.06-10.91.06Zm2.67-21.46v19.16c2.67,0,5.32.31,7.85-.1,1.88-.3,3.89-1.21,5.34-2.43,3.09-2.6,3.29-6.17,2.39-9.88-.78-3.23-2.86-5.22-6.05-5.76-3.1-.53-6.26-.66-9.54-.98Z"/>
    <path class="cls-3" d="m302.98,112.06v2.78c.02.16.04.32.06.48-2.88.53-5.76,1.55-8.63,1.5-8-.13-13.05-6.59-12.23-14.05.83-7.6,8.87-11.59,14.6-10.01,1.92.53,3.92.75,5.88,1.11v3.02c-1.72-.54-3.39-1.25-5.14-1.6-5.8-1.15-11.34,1.12-12.46,8.1-.98,6.08,4.46,11.19,9.3,10.9,1.47-.09,2.95-.27,4.37-.64,1.39-.36,2.71-1,4.25-1.58Z"/>
    <path class="cls-4" d="m368.02,124.08v-8.14c-2.85.79-5.57,1.33-8.17-.14-2.27-1.28-3.44-3.34-3.61-5.94-.18-2.61-.06-5.15,2.16-7.01,1.35-1.13,2.84-1.93,4.69-1.91,2.37.03,4.75,0,7.24,0v16.68c0,1.63-.11,3.26.03,4.88.14,1.68-.56,2.16-2.07,1.85-.09-.09-.18-.19-.27-.28Zm-.15-10.49v-10.71c-3.28.24-6.92-.91-8.74,3.12-1.14,2.52-.7,5.21,1.12,7.04,1.93,1.95,4.19,2.11,7.62.55Z"/>
    <path class="cls-3" d="m141.82,108.53h-10.96c-.58,3.07,2.11,5.33,3.89,5.76,1.27.31,3.71-.3,6.94-1.57.34,2.05-.74,3.27-3.4,3.86-3.54.77-6.64.03-8.74-3.05-2.52-3.69-2.18-10.43,2.84-12.46,4.38-1.77,9.68.28,9.43,7.46Zm-2.28-1.62c-.42-3.08-2.34-4.72-4.86-4.3-2.24.38-4,2.45-3.64,4.3h8.5Z"/>
    <path class="cls-3" d="m158.14,108.5c-1.95,0-3.79,0-5.63,0s-3.56,0-5.33,0c-.51,5.42,4.1,7.16,10.77,4.22.54,2.46.64,2.38-3.14,3.72-3.6,1.28-6.74.05-8.79-2.76-2.88-3.96-2.25-10.56,2.69-12.6,4.35-1.8,9.65.26,9.42,7.42Zm-2.32-1.6c-.29-2.96-1.77-4.39-4.49-4.29-2.08.08-4.41,2.11-4.03,4.29h8.51Z"/>
    <path class="cls-4" d="m269.59,108.5h-11.17c-.28,2.16.61,3.84,2.18,4.88,2.93,1.95,5.84.98,8.58-.74.51,2.15.54,2.22-1.35,3.07-3.43,1.54-7.6,1.45-10.09-1.49-3.48-4.11-2.43-11.51,2.42-13.19,4.83-1.67,8.95.76,9.29,6.17.02.37.09.74.15,1.3Zm-11.04-1.63h8.66c-.31-2.75-1.89-4.24-4.46-4.28-2.17-.04-3.91,1.7-4.2,4.28Z"/>
    <path class="cls-3" d="m326.77,108.5h-11.44c-.38,2.44,1.77,5.19,3.61,5.63,2.52.6,4.8,0,6.99-1.27.55,2.24.41,2.32-2.4,3.42-3.75,1.47-7.84-.11-9.52-2.96-2.06-3.5-1.7-9.45,1.88-11.69,3.03-1.9,8.82-1.67,10.28,3.66.27.97.37,1.98.6,3.21Zm-2.55-1.63c-.84-3.28-2.36-4.56-4.93-4.26-1.98.24-3.66,2.13-3.75,4.26h8.68Z"/>
    <path class="cls-3" d="m200.11,112.68c.63,1.83-.35,2.78-1.78,3.21-2.99.89-6.02,1.51-8.83-.62-1.54-1.17-2.34-2.76-2.84-4.58-1.04-3.84.86-8.72,4.09-9.69,4.94-1.48,9.54.51,9.46,7.47h-11.32c.83,5.9,4.37,7.2,11.22,4.2Zm-2.16-5.74c-.81-3.36-2.66-4.85-5.23-4.34-1.88.38-3.59,2.57-3.35,4.34h8.58Z"/>
    <path class="cls-2" d="m216.56,116.21h-2.12c0-2.74.04-5.49-.02-8.23-.02-.88-.28-1.76-.43-2.64-.25-1.53-1.12-2.5-2.66-2.74-1.92-.3-3.52.36-4.64,1.94-.3.42-.31,1.11-.31,1.68-.03,3.3-.01,6.6-.01,10.06h-2.19l-.1-.1-.13.04v-15.18h2.09c.05.44.1.95.17,1.62.67-.44,1.24-.85,1.85-1.2,3.87-2.23,8.58-.36,8.53,4.45-.04,3.34.14,6.68.22,10.01-.09.09-.17.19-.26.28Z"/>
    <path class="cls-1" d="m183.22,101.87v1.96c-1.4-.35-2.73-.87-4.09-.96-.85-.06-2.12.26-2.52.86-.56.84-.13,1.9.94,2.54,1.69,1,3.49,1.93,4.93,3.23,2.58,2.32,1.63,5.44-1.61,6.84-2.1.91-3.88.31-5.76-.27-1.38-.42-1.49-1.49-1.14-2.81,1.12.38,2.19.78,3.29,1.1.55.16,1.26.42,1.69.21.88-.43,2.07-1.03,2.27-1.79.16-.64-.75-1.78-1.46-2.35-.99-.8-2.25-1.27-3.39-1.9-1.88-1.03-3.1-3.37-2.48-5.06.58-1.59,1.66-2.95,4.4-2.83,1.66.08,3.3.45,4.95.7,0,.17,0,.35-.01.52Z"/>
    <path class="cls-4" d="m160.4,112.83c1.63.65,2.77,1.03,3.84,1.55,1.33.64,2.5.17,3.58-.47,1.23-.73.98-2.29-.49-3.2-1.32-.82-2.79-1.43-4.04-2.33-1.05-.76-2.07-1.59-2.21-3.15-.41-4.44,3.32-5.18,6.86-4.4,2.57.57,2.54.71,2.14,3.04-1.24-.37-2.5-.68-3.72-1.13-1.21-.44-2.02.04-2.66.96-.79,1.14.12,1.87.84,2.4,1.37.99,2.89,1.76,4.31,2.67,1.9,1.23,2.57,2.68,2.02,4.8-.45,1.7-1.86,2.52-3.44,3.02-2.15.68-4.16.04-5.94-1.06-.57-.35-.64-1.53-1.08-2.7Z"/>
    <path class="cls-3" d="m341.4,105.75c2.76-5.58,7.08-6.03,12.11-4.35v2.44c-4.4-1.58-6.62-1.37-8.61,1.06-1.38,1.69-1.52,4.84-.1,7.05,2.23,3.48,5.48,2.43,8.6,1.73.5,2.21.41,2.36-1.6,2.84-4.67,1.13-8.63-.82-9.96-5.1-.41-1.33-.21-2.84-.3-4.27-.04-.57-.11-1.13-.13-1.4Z"/>
    <path class="cls-2" d="m332.41,116.22h-2.24v-15.18h2.16c.04.78.08,1.61.14,2.93.52-.64.79-.95,1.03-1.29,1.52-2.11,4.08-2.7,6.15-1.38.64.41,1.29.83.58,1.79-.57.77-.95,1.06-1.9.41-1.98-1.36-4.03-.23-5.06,1.85-1.25,2.52-.69,5.03-.86,7.55-.07,1.07-.01,2.15-.01,3.31Z"/>
    <path d="m309.29,96.71v19.44h-2.25v-23.28h2.25v2.86c0,.33,0,.65,0,.98Z"/>
    <path class="cls-5" d="m309.29,100.62v-3.26c1.16,1.23,1.16,2.55,0,3.26Z"/>
    <path class="cls-2" d="m421.79,45.2c-.22.34-.44.67-.66,1.01-.73-.96.64-.54.66-1.01Z"/>
    <path class="cls-5" d="m309.29,96.71c0-.33,0-.65,0-.98.18.19.37.38.55.56-.18.14-.37.28-.55.41Z"/>
    <path class="cls-7" d="m121.29,97.29c.05-.12.1-.24.16-.36.06.15.11.29.17.44-.11-.03-.22-.06-.33-.08Z"/>
    <path class="cls-6" d="m105.25,97.13l.36.26-.36-.26Z"/>
    <path class="cls-7" d="m121.69,115.93c.09.09.17.18.26.27-.09-.09-.17-.18-.26-.27Z"/>
    <path class="cls-9" d="m216.56,116.21c.09-.09.17-.19.26-.28-.09.09-.17.19-.26.28Z"/>
    <path class="cls-8" d="m203.96,116.22l.13-.04s.1.1.1.1c-.08.06-.17.13-.25.19,0-.08.01-.16.02-.25Z"/>
  </g>
</svg>