<?xml version="1.0" encoding="utf-8"?>
<!-- Generator: Adobe Illustrator 27.6.1, SVG Export Plug-In . SVG Version: 6.00 Build 0)  -->
<svg version="1.1" id="Layer_1" xmlns="http://www.w3.org/2000/svg" xmlns:xlink="http://www.w3.org/1999/xlink" x="0px" y="0px"
	 viewBox="0 0 500 141.7" style="enable-background:new 0 0 500 141.7;" xml:space="preserve">
<style type="text/css">
	.st0{fill:#1A1A1A;}
	.st1{fill:#EAEAEA;}
	.st2{fill:#FFFFFF;}
	.st3{fill:#010101;}
	.st4{fill:#8B8B8B;}
	.st5{fill:#575757;}
</style>
<path class="st0" d="M372,124.1l0.3,0.3L372,124.1z"/>
<path class="st1" d="M421.8,45.2c2-4.5,5.3-7.8,9.9-9.7c2.7-1.2,5.5-1.7,8.3-1.6c4.3,0.2,8.4,0.8,12.2,3.1c4.3,2.7,7,6.5,8.1,11.4
	c0.4,1.8,1,3.8,0.9,5.6c-0.2,2.4-0.9,4.7-1.8,7c-1.5,4-3.9,7.4-7.8,9.8c0.5,0.3,0.9,0.7,1.3,0.8c3.9,2,7.8,4.1,11.9,5.9
	c4.9,2.2,9.9,3.9,15.2,4.7c4.7,0.7,9.1,0.1,13.5-1.4c0.6-0.2,1.4-0.2,2-0.4c0,0.2,0.1,0.4,0.1,0.6c-1.4,0.5-2.9,1.1-4.3,1.6
	c-3.9,1.3-8,2.1-12.1,2.2c-4.7,0.1-9.2-1.1-13.5-2.9c-3.7-1.6-7.3-3.4-10.9-5.2c-1.8-0.9-3.5-2.1-5.3-3.1c-0.5-0.3-1.3-0.3-1.9-0.1
	c-5.7,1.8-11.3,2-16.9-0.7c-5.8-2.8-9.1-7.5-10.6-13.6c-1.1-4.4-0.5-8.6,1-12.8C421.4,45.9,421.6,45.5,421.8,45.2L421.8,45.2z
	 M455.9,55.2c-0.1-1.8-0.2-3.5-0.5-5.3c-0.8-4.2-2.4-7.8-5.7-10.7c-3.1-2.6-6.6-3.5-10.6-3.5c-6.4-0.1-11.4,3.9-13.3,9.7
	c-1.3,3.7-1.2,7.5-0.7,11.4c0.9,6.9,5.9,14.2,13.5,15.5c5.1,0.9,11.1-1.3,14-5.5C455,63.3,455.9,59.4,455.9,55.2z"/>
<path class="st1" d="M58.6,73.9c-0.9,0-1.8,0-2.8,0c-2.3-0.1-4.5-0.2-6.8-0.3c-1,0-1.5,0-1.3-1.5c0.3-2.1-0.1-4.3-0.2-6.4
	c-0.2-1.9-0.4-3.8-0.6-5.7c-0.5-5.2-1-10.5-1.8-15.8c-0.8,1.5-1.5,3-2.2,4.5c-1.8,3.7-3.6,7.5-5.3,11.2c-2,4.3-4,8.5-6,12.8
	c-0.2,0.3-0.5,0.6-0.7,0.9c-0.3-0.3-0.8-0.5-1-0.9c-3.1-6-6.2-12-9.2-18.1c-1.5-3-2.8-6.2-4.2-9.3c-0.1-0.1-0.2-0.2-0.5-0.4
	c-0.2,1.7-0.6,3.3-0.6,4.9c-0.1,2,0.1,4-0.1,6c-0.1,1.4-0.4,2.8-0.6,4.2c-0.2,1.6-0.5,3.2-0.6,4.7c-0.2,1.8-0.3,3.5-0.3,5.3
	c-0.1,2.3,0.2,2.6,2.4,3.2c0.4,0.1,0.9,0.1,1.3,0.5H6.5c0-0.1,0-0.2,0-0.3c0.3-0.1,0.6-0.4,0.8-0.4c2.1,0.4,2.7-1,3-2.5
	c0.4-1.9,0.5-3.9,0.8-5.8c0.4-3.5,0.9-7.1,1.2-10.6c0.3-2.4,0.4-4.8,0.7-7.2c0.3-2.6,0.6-5.2,0.9-7.8c0.1-1.3,0.2-2.5,0.4-3.8
	c0.1-0.5,0.2-1,0.4-1.4c0.2,0,0.4-0.1,0.5-0.1c5.5,11.1,10.9,22.2,16.5,33.5c2.7-5.8,5.3-11.4,8-17c2.4-5.2,4.9-10.3,7.3-15.4
	c0.1-0.3,0.5-0.4,0.8-0.6c0.2,0.3,0.6,0.6,0.7,0.9c0.3,2.2,0.4,4.4,0.7,6.7c0.4,3.6,0.9,7.3,1.3,10.9c0.3,2.3,0.4,4.6,0.7,6.8
	c0.4,3.5,0.8,6.9,1.3,10.4c0.3,1.8,2.5,3.2,5,3.4c0.4,0,0.8,0.1,1.1,0.2C58.7,73.6,58.7,73.7,58.6,73.9L58.6,73.9z"/>
<path class="st1" d="M193.8,73.7c3.2-1,3.4-1.1,3.5-4.5c0.2-10,0.4-19.9,0.3-29.9c0-3.1-0.4-3.6-3.5-3.8c-0.3,0-0.6-0.2-1.3-0.5
	c0.5-0.1,0.7-0.2,0.8-0.2c5.6-0.1,11.3-0.4,16.9-0.2c4.5,0.1,9,0.6,13.1,2.8c5.9,3.2,9,8.2,9.2,14.9c0.2,4.7-0.6,9.1-3.3,13
	c-3.3,4.8-7.6,8-13.5,8.4c-4.1,0.3-8.1,0.1-12.2,0.1c-2.8,0-5.6,0-8.5,0C194.9,73.9,194.3,73.7,193.8,73.7L193.8,73.7z M202.2,53.5
	c0,5,0,10,0,15c0,1.3,0.5,2.3,1.7,2.8c1.2,0.5,2.5,0.7,3.8,1c3.4,0.7,6.8,0.6,10.1-0.7c4.1-1.6,7.4-3.9,9-8.3c1.5-4,2-8.1,1.2-12.2
	c-1.2-5.9-4.6-10.2-10.1-12.8c-4.4-2.1-9-1.9-13.7-1.9c-1.3,0-2,0.6-2,2.1C202.3,43.5,202.2,48.5,202.2,53.5L202.2,53.5z"/>
<path class="st1" d="M143.8,42.6c0,5.2,0,10.1,0,15c0,3.2,0.2,6.4,0.3,9.5c0.1,1.2,0.1,2.5,0.4,3.7c0.4,1.9,1.9,2.3,3.6,2.5
	c0.4,0.1,0.7,0,1.1,0c0,0.1,0,0.3,0,0.4h-12.1v-0.3c0.3,0,0.7-0.1,1-0.1c2.3-0.4,2.8-1,2.8-3.4c0.1-6.6,0.2-13.2,0.3-19.8
	c0.1-5.3,0-10.5,0-15.8c1.8-0.4,2.3,1.1,3.1,1.9c1.8,1.9,3.5,3.9,5.3,5.8c2.5,2.7,5.1,5.3,7.6,8c4.2,4.5,8.4,9.1,12.7,13.6
	c0.9,0.9,1.7,2,2.6,2.9c0.2-0.1,0.3-0.1,0.5-0.2c-0.1-0.9-0.2-1.8-0.3-2.7c-0.1-0.9-0.1-1.7-0.1-2.6c-0.1-7.2-0.2-14.4-0.3-21.6
	c-0.1-3.1-0.7-3.7-3.8-4c-0.4,0-0.7-0.2-1-0.6h11.5c0,0.1,0,0.2,0.1,0.3c-0.4,0.1-0.8,0.3-1.2,0.3c-1.6,0.1-2.3,0.7-2.3,2.4
	c-0.1,5.9,0,11.8-0.1,17.8c-0.1,5.8-0.1,11.5-0.3,17.2c0,0.4-0.2,0.8-0.5,1.1c-0.1,0.1-0.7-0.1-1-0.4c-5.3-5.4-10.7-10.8-15.9-16.2
	c-2.9-3-5.8-6.1-8.6-9.2c-1.5-1.6-2.9-3.3-4.3-4.9C144.5,42.8,144.1,42.7,143.8,42.6L143.8,42.6z"/>
<path class="st1" d="M328.9,34.8c1.5,0,2.9,0,4.4,0c4.5,0.1,9-0.1,13.5,0.4c6.1,0.6,9.3,6,7.8,12c-0.9,3.6-3.3,6.2-6,9
	c1.3,1.2,2.7,2.3,3.8,3.7c1.3,1.6,2.3,3.6,3.7,5.2c2.1,2.4,4.2,4.8,6.6,6.7c1.5,1.1,3.7,1.3,5.3,1.9c-2.6,0-5.6,0.3-8.5-0.1
	c-2.3-0.3-3.9-2.2-5.3-4c-3-3.8-5.9-7.7-8.8-11.6c-0.3-0.3-0.9-0.6-1.4-0.6c-2-0.1-4,0-6.3,0c0,1.7,0,3.4,0,5.2c0,2.2,0,4.3,0,6.5
	c0,3.1,1,4.2,4.1,4.3c0.2,0,0.4,0,0.6,0.4h-13.2c0.6-0.4,0.8-0.7,1.1-0.7c2.3-0.3,2.8-0.8,2.8-3.2c0.1-9.7,0.2-19.5,0.3-29.2
	c0-1.1-0.1-2.2-0.4-3.2c-0.3-1.3-1.5-1.7-2.6-1.9c-0.5-0.1-1-0.1-1.5-0.1C328.9,35.2,328.9,35,328.9,34.8L328.9,34.8z M337.6,45.6
	c0,2.7,0,5.3,0,8c0,0.5,0.4,1.3,0.7,1.3c1.9,0.3,3.8,0.8,5.7,0.6c1.9-0.1,3.5-0.8,4.7-2.7c2.1-3.2,1.8-6.5,1.2-9.9
	c-0.5-3.1-2.3-5.5-5.6-6.3c-1.8-0.4-3.6-0.2-5.4-0.4c-1.1-0.1-1.4,0.3-1.4,1.4C337.6,40.4,337.6,43,337.6,45.6L337.6,45.6z"/>
<path class="st1" d="M407.4,35.4v9.7c-0.2,0-0.4,0-0.6,0.1c-0.2-0.9-0.5-1.8-0.6-2.7c-0.5-3.1-2.5-4.7-5.4-5.3
	c-2.4-0.5-4.9-1.2-7.3-1.2c-4.1,0-8.3,0.5-11.4,3.4c-2.5,2.4-4.2,5.4-4.7,9c-0.4,3.5-0.7,7,0.4,10.3c2.1,6.3,6.2,10.9,12.7,12.8
	c4.7,1.4,9.6,1.8,13.8-1.4c1.2-0.9,1.7-2.7,2.5-4.1c0.2-0.4,0.3-0.9,0.5-1.4c0.2,0,0.4,0.1,0.5,0.1c-0.1,1.3-0.2,2.6-0.4,3.9
	c-0.1,1-0.4,2.1-0.6,3.1c-0.4,1.8-1.8,2.5-4.4,2.7c-3.2,0.3-6.5,0.5-9.7,0.3c-5.1-0.3-9.7-1.9-13.7-5.3c-3.5-2.9-5.4-6.7-6.4-10.9
	c-0.8-3.3-0.4-6.7,0.3-10.1c0.8-3.5,2.8-6.2,5-8.7c1.9-2.3,4.7-3.5,7.6-4.3c2.3-0.6,4.7-1.1,7.1-1.3c2.2-0.2,4.5,0.1,6.8,0.3
	c2.2,0.2,4.4,0.6,6.6,0.9C406.6,35.2,407.2,35.4,407.4,35.4L407.4,35.4z"/>
<path class="st1" d="M279.8,45.2c-0.2-0.9-0.5-1.9-0.6-2.8c-0.4-2.9-2.4-4.5-4.9-5.2c-2.6-0.7-5.3-1.3-7.9-1.3
	c-3.8,0.1-7.6,0.4-10.7,3c-2.7,2.2-4.5,4.9-5.1,8.2c-0.7,4-1,8.2,0.5,12.2c2.7,7.1,7.7,11.5,15.4,12.7c3.2,0.5,6.3,0.3,9.3-1
	c2.4-1,3.3-2.8,4-5.1c0.2-0.5,0.3-1,0.5-1.6l0.5,0.1c-0.1,1.3-0.2,2.6-0.4,3.9c-0.1,0.7-0.4,1.3-0.5,2c-0.7,2.7-1.9,3.7-4.5,3.8
	c-3.2,0.2-6.5,0.4-9.7,0.3c-5.6-0.3-10.7-2.2-14.8-6.2c-3.1-3.1-4.7-6.9-5.4-11.3c-0.8-5.5,0.4-10.5,3.4-15c2.2-3.3,5.5-5.7,9.4-6.8
	c2.4-0.7,5-1.2,7.5-1.3c2.3-0.1,4.7,0.3,7,0.5c2.1,0.2,4.1,0.5,6.2,0.7c1.2,0.1,2.4,0.2,1.5,1.9c-0.1,0.2,0,0.5,0,0.8
	c0,2.4,0,4.8,0,7.2C280.3,45.1,280,45.1,279.8,45.2L279.8,45.2z"/>
<path class="st1" d="M70,65c0,2.9,0.9,5.3,3.5,6.6c2.7,1.4,5.6,1.5,8.3,0c2.4-1.3,3.4-3.4,3.5-6.2c0.1-2.5-0.7-4.4-2.5-6
	c-2.3-2-4.7-3.9-6.9-6c-3.1-2.9-5.7-6-5.6-10.7c0.1-4.7,3.6-8.3,7.9-8.7c3.3-0.3,6.6,0.1,9.8,0.2v7.5c-0.4-0.5-0.7-0.7-0.7-0.8
	c-0.1-3.3-1.8-4.8-5.4-5.2c-2.6-0.3-5.4-0.4-7.1,2.3c-2,3.2-1.7,5.6,0.9,8.3c2.3,2.4,5.1,4.3,7.6,6.4c3.1,2.7,5.6,5.8,5.9,10
	c0.3,4.2-2.2,9-6.8,10.7c-4.1,1.5-8,1.2-12-0.1c-1-0.3-1.6-1-1.5-2.2c0.2-2.1,0.2-4.2,0.2-6.3C69.6,65,69.8,65,70,65L70,65z"/>
<path class="st1" d="M104.4,64.8c0.2,1.2,0.3,2.2,0.6,3.2c1,2.7,3.2,4.5,6.4,4.6c2.4,0.1,4.6-0.1,6.5-1.9c2.1-1.9,3-6.7,1.2-8.9
	c-1.9-2.3-4-4.5-6.2-6.4c-3.1-2.7-6.5-5.2-7.6-9.4c-1.5-6.2,1.6-11.2,7.9-11.8c3.2-0.3,6.4,0.2,9.7,0.3c-0.1,2.7-0.3,4.9-0.4,7.1
	l-0.3,0c-0.1-0.2-0.2-0.5-0.2-0.8c-0.8-4.2-2.4-4.5-5.9-5.1c-2.3-0.4-4.7,0-6.4,2c-2.1,2.4-1.9,6,0.6,8.5c2.5,2.4,5.3,4.5,7.9,6.8
	c4.8,4.1,6.5,8.2,5.1,13.8c-1.3,5-5.7,7.5-10.4,7.7c-2.7,0.1-5.3,0.2-7.8-1.1c-0.9-0.5-1.4-1-1.3-2.1c0.2-1.9,0.2-3.8,0.3-5.8
	C104,65.3,104.2,65.2,104.4,64.8L104.4,64.8z"/>
<path class="st1" d="M318.1,66.8c-0.4,2.1-0.7,4.2-1.2,6.2c-0.1,0.4-1,0.8-1.5,0.8c-4.6,0.1-9.2,0-13.9,0c-2.1,0-4.1,0-6.2,0
	c-0.5,0-0.9-0.2-1.6-0.3c0.4-0.3,0.5-0.5,0.7-0.6c2.4-0.6,3-1.2,3-3.7c0.1-9.8,0.2-19.5,0.3-29.2c0-0.5,0-1.1-0.1-1.6
	c-0.5-2.3-1.2-3-3.6-3c-0.2,0-0.5-0.1-0.7-0.4h13c0,0.1,0,0.1,0.1,0.2c-0.3,0.1-0.6,0.2-0.9,0.2c-3,0-3.3,1-3.3,3.3
	c-0.1,8.2,0,16.5,0.1,24.7c0,1.6,0.1,3.1,0.1,4.7c0.1,2,0.8,3.1,2.8,3.4c2.7,0.3,5.4,0.4,8,0.3c2.2-0.1,3.1-2,3.9-3.9
	c0.2-0.4,0.3-0.8,0.5-1.3C317.7,66.7,317.9,66.8,318.1,66.8L318.1,66.8z"/>
<path class="st1" d="M121.3,97.3c-2.2,2.6-4.3,5.2-6.5,7.8c-0.5,0.6-0.9,1.1-1.5,1.8c-2.6-3.2-5.1-6.4-7.7-9.6
	c-0.1-0.1-0.2-0.2-0.4-0.3c0,5.5-0.1,11.1-0.1,16.6c0,0.9,0,1.8,0,2.8h-2.5V92.9c1.6-0.5,2.7,0.1,3.7,1.5c2.2,2.9,4.6,5.6,7.1,8.7
	c2.2-2.8,4.2-5.4,6.3-8.1c1.1-1.5,2.2-2.9,4.5-2.1v23.2H122c-0.1-0.1-0.2-0.2-0.3-0.3c0-6.2-0.1-12.4-0.1-18.6
	c-0.1-0.2-0.1-0.3-0.2-0.4C121.4,97.1,121.4,97.2,121.3,97.3L121.3,97.3z"/>
<path class="st1" d="M231.4,116.2V92.7c5,0.3,10.1-0.8,14.9,1.4c3.4,1.6,5.6,4.1,6.2,8c0.5,3.5,0,6.6-2,9.4c-2,2.9-4.9,4.4-8.2,4.7
	C238.7,116.4,235.1,116.3,231.4,116.2L231.4,116.2z M234.1,94.8v19.2c2.7,0,5.3,0.3,7.9-0.1c1.9-0.3,3.9-1.2,5.3-2.4
	c3.1-2.6,3.3-6.2,2.4-9.9c-0.8-3.2-2.9-5.2-6.1-5.8C240.5,95.2,237.3,95.1,234.1,94.8L234.1,94.8z"/>
<path class="st1" d="M303,112.1v2.8c0,0.2,0,0.3,0.1,0.5c-2.9,0.5-5.8,1.6-8.6,1.5c-8-0.1-13-6.6-12.2-14.1
	c0.8-7.6,8.9-11.6,14.6-10c1.9,0.5,3.9,0.8,5.9,1.1v3c-1.7-0.5-3.4-1.2-5.1-1.6c-5.8-1.2-11.3,1.1-12.5,8.1
	c-1,6.1,4.5,11.2,9.3,10.9c1.5-0.1,3-0.3,4.4-0.6C300.1,113.3,301.4,112.6,303,112.1L303,112.1z"/>
<path class="st1" d="M368,124.1v-8.1c-2.9,0.8-5.6,1.3-8.2-0.1c-2.3-1.3-3.4-3.3-3.6-5.9c-0.2-2.6-0.1-5.2,2.2-7
	c1.4-1.1,2.8-1.9,4.7-1.9c2.4,0,4.8,0,7.2,0v16.7c0,1.6-0.1,3.3,0,4.9c0.1,1.7-0.6,2.2-2.1,1.8C368.2,124.3,368.1,124.2,368,124.1
	L368,124.1z M367.9,113.6v-10.7c-3.3,0.2-6.9-0.9-8.7,3.1c-1.1,2.5-0.7,5.2,1.1,7C362.2,115,364.4,115.2,367.9,113.6z"/>
<path class="st1" d="M141.8,108.5h-11c-0.6,3.1,2.1,5.3,3.9,5.8c1.3,0.3,3.7-0.3,6.9-1.6c0.3,2.1-0.7,3.3-3.4,3.9
	c-3.5,0.8-6.6,0-8.7-3.1c-2.5-3.7-2.2-10.4,2.8-12.5C136.8,99.3,142.1,101.3,141.8,108.5z M139.5,106.9c-0.4-3.1-2.3-4.7-4.9-4.3
	c-2.2,0.4-4,2.4-3.6,4.3H139.5z"/>
<path class="st1" d="M158.1,108.5c-1.9,0-3.8,0-5.6,0s-3.6,0-5.3,0c-0.5,5.4,4.1,7.2,10.8,4.2c0.5,2.5,0.6,2.4-3.1,3.7
	c-3.6,1.3-6.7,0.1-8.8-2.8c-2.9-4-2.2-10.6,2.7-12.6C153.1,99.3,158.4,101.3,158.1,108.5L158.1,108.5z M155.8,106.9
	c-0.3-3-1.8-4.4-4.5-4.3c-2.1,0.1-4.4,2.1-4,4.3H155.8L155.8,106.9z"/>
<path class="st1" d="M269.6,108.5h-11.2c-0.3,2.2,0.6,3.8,2.2,4.9c2.9,1.9,5.8,1,8.6-0.7c0.5,2.2,0.5,2.2-1.4,3.1
	c-3.4,1.5-7.6,1.4-10.1-1.5c-3.5-4.1-2.4-11.5,2.4-13.2c4.8-1.7,9,0.8,9.3,6.2C269.5,107.6,269.5,107.9,269.6,108.5L269.6,108.5z
	 M258.5,106.9h8.7c-0.3-2.8-1.9-4.2-4.5-4.3C260.6,102.6,258.8,104.3,258.5,106.9z"/>
<path class="st1" d="M326.8,108.5h-11.4c-0.4,2.4,1.8,5.2,3.6,5.6c2.5,0.6,4.8,0,7-1.3c0.5,2.2,0.4,2.3-2.4,3.4
	c-3.8,1.5-7.8-0.1-9.5-3c-2.1-3.5-1.7-9.4,1.9-11.7c3-1.9,8.8-1.7,10.3,3.7C326.4,106.3,326.5,107.3,326.8,108.5z M324.2,106.9
	c-0.8-3.3-2.4-4.6-4.9-4.3c-2,0.2-3.7,2.1-3.8,4.3H324.2z"/>
<path class="st1" d="M200.1,112.7c0.6,1.8-0.4,2.8-1.8,3.2c-3,0.9-6,1.5-8.8-0.6c-1.5-1.2-2.3-2.8-2.8-4.6c-1-3.8,0.9-8.7,4.1-9.7
	c4.9-1.5,9.5,0.5,9.5,7.5h-11.3C189.7,114.4,193.3,115.7,200.1,112.7L200.1,112.7z M197.9,106.9c-0.8-3.4-2.7-4.8-5.2-4.3
	c-1.9,0.4-3.6,2.6-3.4,4.3H197.9z"/>
<path class="st1" d="M216.6,116.2h-2.1c0-2.7,0-5.5,0-8.2c0-0.9-0.3-1.8-0.4-2.6c-0.2-1.5-1.1-2.5-2.7-2.7c-1.9-0.3-3.5,0.4-4.6,1.9
	c-0.3,0.4-0.3,1.1-0.3,1.7c0,3.3,0,6.6,0,10.1h-2.2l-0.1-0.1l-0.1,0V101h2.1c0.1,0.4,0.1,0.9,0.2,1.6c0.7-0.4,1.2-0.8,1.9-1.2
	c3.9-2.2,8.6-0.4,8.5,4.4c0,3.3,0.1,6.7,0.2,10C216.7,116,216.6,116.1,216.6,116.2L216.6,116.2z"/>
<path class="st1" d="M183.2,101.9v2c-1.4-0.3-2.7-0.9-4.1-1c-0.9-0.1-2.1,0.3-2.5,0.9c-0.6,0.8-0.1,1.9,0.9,2.5
	c1.7,1,3.5,1.9,4.9,3.2c2.6,2.3,1.6,5.4-1.6,6.8c-2.1,0.9-3.9,0.3-5.8-0.3c-1.4-0.4-1.5-1.5-1.1-2.8c1.1,0.4,2.2,0.8,3.3,1.1
	c0.6,0.2,1.3,0.4,1.7,0.2c0.9-0.4,2.1-1,2.3-1.8c0.2-0.6-0.8-1.8-1.5-2.3c-1-0.8-2.2-1.3-3.4-1.9c-1.9-1-3.1-3.4-2.5-5.1
	c0.6-1.6,1.7-2.9,4.4-2.8c1.7,0.1,3.3,0.4,4.9,0.7C183.2,101.5,183.2,101.7,183.2,101.9L183.2,101.9z"/>
<path class="st1" d="M160.4,112.8c1.6,0.7,2.8,1,3.8,1.6c1.3,0.6,2.5,0.2,3.6-0.5c1.2-0.7,1-2.3-0.5-3.2c-1.3-0.8-2.8-1.4-4-2.3
	c-1.1-0.8-2.1-1.6-2.2-3.2c-0.4-4.4,3.3-5.2,6.9-4.4c2.6,0.6,2.5,0.7,2.1,3c-1.2-0.4-2.5-0.7-3.7-1.1c-1.2-0.4-2,0-2.7,1
	c-0.8,1.1,0.1,1.9,0.8,2.4c1.4,1,2.9,1.8,4.3,2.7c1.9,1.2,2.6,2.7,2,4.8c-0.4,1.7-1.9,2.5-3.4,3c-2.1,0.7-4.2,0-5.9-1.1
	C160.9,115.2,160.8,114,160.4,112.8L160.4,112.8z"/>
<path class="st1" d="M341.4,105.8c2.8-5.6,7.1-6,12.1-4.3v2.4c-4.4-1.6-6.6-1.4-8.6,1.1c-1.4,1.7-1.5,4.8-0.1,7.1
	c2.2,3.5,5.5,2.4,8.6,1.7c0.5,2.2,0.4,2.4-1.6,2.8c-4.7,1.1-8.6-0.8-10-5.1c-0.4-1.3-0.2-2.8-0.3-4.3
	C341.5,106.6,341.4,106,341.4,105.8L341.4,105.8z"/>
<path class="st1" d="M332.4,116.2h-2.2V101h2.2c0,0.8,0.1,1.6,0.1,2.9c0.5-0.6,0.8-0.9,1-1.3c1.5-2.1,4.1-2.7,6.1-1.4
	c0.6,0.4,1.3,0.8,0.6,1.8c-0.6,0.8-1,1.1-1.9,0.4c-2-1.4-4-0.2-5.1,1.8c-1.2,2.5-0.7,5-0.9,7.6C332.3,114,332.4,115.1,332.4,116.2
	L332.4,116.2z"/>
<path class="st1" d="M309.3,96.7v19.4H307V92.9h2.2v2.9C309.3,96.1,309.3,96.4,309.3,96.7z"/>
<path class="st2" d="M309.3,100.6v-3.3C310.5,98.6,310.5,99.9,309.3,100.6z"/>
<path class="st3" d="M421.8,45.2c-0.2,0.3-0.4,0.7-0.7,1C420.4,45.2,421.8,45.7,421.8,45.2z"/>
<path class="st2" d="M309.3,96.7c0-0.3,0-0.7,0-1c0.2,0.2,0.4,0.4,0.5,0.6C309.7,96.4,309.5,96.6,309.3,96.7L309.3,96.7z"/>
<path class="st0" d="M121.3,97.3c0.1-0.1,0.1-0.2,0.2-0.4c0.1,0.2,0.1,0.3,0.2,0.4C121.5,97.3,121.4,97.3,121.3,97.3z"/>
<path class="st4" d="M105.2,97.1l0.4,0.3L105.2,97.1z"/>
<path class="st0" d="M121.7,115.9c0.1,0.1,0.2,0.2,0.3,0.3C121.9,116.1,121.8,116,121.7,115.9z"/>
<path class="st1" d="M216.6,116.2c0.1-0.1,0.2-0.2,0.3-0.3C216.7,116,216.6,116.1,216.6,116.2z"/>
<path class="st5" d="M204,116.2l0.1,0l0.1,0.1c-0.1,0.1-0.2,0.1-0.2,0.2C203.9,116.4,204,116.3,204,116.2L204,116.2z"/>
</svg>
