<?xml version="1.0" encoding="UTF-8"?>
<svg id="Layer_1" data-name="Layer 1" xmlns="http://www.w3.org/2000/svg" viewBox="0 0 500 500">
  <defs>
    <style>
      .cls-1 {
        fill: #fff;
      }
    </style>
  </defs>
  <path d="m160.92,422.94c-21.46,4.44-35.3-12.89-44.36-30.06-8.25-19.26-16.06-38.68-23.96-58.09-6.89-20.89-6.49-37.45.09-58.21,12.76-42.3,18.11-78.81,44.79-115.57,13-17.04,31.98-29.29,53.07-33.42,22.93-4.31,45.84-8.54,68.7-13.21,4.83-1,9.69-1.51,14.5-1.51,24.75,0,48.79,14.45,58.71,37.43,9.04,20.7,19.1,40.71,29.7,60.65,8.59,20.84,8.97,37.27-.37,58.12-24.43,35.67-53.71,65.44-73.39,104.45-9.72,19.89-32.19,29.3-53.1,31.38-21.62,2.64-43.43,6.01-63.56,14.79-3.65,1.53-7.29,2.63-10.82,3.24,0,0,0,0,0,0Z"/>
  <path class="cls-1" d="m273.72,113.37c13.83,1.28,22.39,3.71,34.79,9.96,10.31,6.48,18.61,15.96,23.41,27.17,9.02,20.71,19.07,40.72,29.71,60.65,8.57,20.7,8.97,36.98-.4,57.67-24.63,35.6-53.94,65.26-73.58,104.37-9.59,19.75-31.88,29.1-52.61,31.17-21.57,2.65-43.35,6.04-63.42,14.84-3.62,1.53-7.22,2.62-10.73,3.23-9.12,1.59-17.49-.05-25.08-5.18-9.12-6-14.06-15.33-18.97-24.66-8.25-19.24-16.04-38.64-23.88-58.05-6.78-20.71-6.35-37.18.06-57.78,12.57-42.45,17.83-78.83,44.68-115.6,12.96-16.88,31.82-29.04,52.77-33.13,22.97-4.32,45.92-8.5,68.82-13.17,4.81-.99,9.64-1.49,14.41-1.49m.06-.98c-4.79,0-9.65.5-14.58,1.53-22.82,4.69-45.68,8.94-68.58,13.25-21.19,4.16-40.35,16.55-53.36,33.7-26.51,36.73-31.95,73.38-44.91,115.53-6.7,20.9-7.08,37.6-.11,58.64,7.95,19.41,15.79,38.85,24.04,58.13,9.14,17.35,22.42,34.41,44.66,30.28,3.52-.61,7.18-1.7,10.93-3.26,20.18-8.76,42.03-12.11,63.69-14.74,21.02-2.1,43.76-11.63,53.59-31.58,19.73-38.91,48.97-68.79,73.2-104.52,10.68-17.23,9.61-41.09.34-58.56-10.58-19.95-20.63-39.97-29.7-60.65-10.04-23.23-34.19-37.74-59.22-37.74h0Z"/>
</svg>