<?xml version="1.0" encoding="UTF-8"?>
<svg id="Layer_1" data-name="Layer 1" xmlns="http://www.w3.org/2000/svg" viewBox="0 0 500 500">
  <defs>
    <style>
      .cls-1 {
        fill: #fff;
      }
    </style>
  </defs>
  <path d="m168.78,444.77c-17.14-.04-36.75-9.04-45.04-24.77-20.88-37.6-47.94-67.96-73.82-101.98-11.29-17.29-7.11-36.29,0-54.08,29.9-58.12,50.45-118.61,73.82-179.4,6.56-18.31,26.28-29.32,45.04-29.31,54.92,0,108.13-.61,162.46,8.72,20.07,3.22,37.83,18.67,48.28,35.39,26.76,41.9,55.11,82.5,80.34,125.38,10.29,16.43,6.63,35.76,0,52.57-23.99,49.96-48.47,95.62-80.34,141.07-10.62,15.34-29.16,26.91-48.28,26.42-54.15,0-108.31,0-162.46,0Z"/>
  <path class="cls-1" d="m331.26,64.46c19.9,3.19,37.51,18.5,47.88,35.06,26.8,41.9,55.17,82.5,80.34,125.44,10.14,16.27,6.52,35.44,0,52.09-23.9,50.04-48.38,95.64-80.34,141.07-10.55,15.18-28.94,26.64-47.88,26.16-54.15.02-108.31-.01-162.46-.01-16.95-.03-36.38-8.91-44.57-24.49-20.85-37.63-47.9-67.98-73.82-101.98-11.24-17.14-7.09-35.94,0-53.58,30.02-58.08,50.54-118.55,73.82-179.4,6.47-18.15,25.97-29.1,44.57-29.1,54.93,0,108.12-.59,162.46,8.73m-.03-1.02c-54.33-9.34-107.54-8.71-162.46-8.71-18.96-.02-38.86,11.02-45.52,29.52-23.46,60.74-44.03,121.25-73.81,179.4-7.14,17.95-11.38,37.13,0,54.58,25.83,34.04,52.9,64.42,73.81,101.98,8.4,15.91,28.16,25.03,45.52,25.06h162.46c19.31.51,37.97-11.18,48.67-26.69,31.79-45.47,56.27-91.19,80.35-141.07,6.76-16.99,10.47-36.45,0-53.05-25.31-42.81-53.64-83.4-80.35-125.31-10.78-17.3-28.23-31.94-48.67-35.72h0Z"/>
</svg>