<?xml version="1.0" encoding="UTF-8"?>
<svg id="Layer_1" data-name="Layer 1" xmlns="http://www.w3.org/2000/svg" viewBox="0 0 500 500">
  <defs>
    <style>
      .cls-1 {
        fill: #fff;
      }
    </style>
  </defs>
  <path d="m238.25,427.71c-12.56-.39-22.9-2.77-35.24-6.82-22.64-9.07-45.25-18.21-68.21-26.46-34.23-12.29-58.96-44.41-62.68-80.57-3.89-33.33-6.72-66.75-10.42-100.1-3.09-31.12,7.66-63.86,27.03-88.29,21.86-27.64,45.94-49.14,75.24-68.6,20.95-13.68,46.87-23.35,71.3-22.67,11.9.33,22.22,2.4,34,5.82,21.28,7.27,42.72,13.8,64.38,19.83,23.14,7.33,58.52,19.89,65.47,46.63,5.46,25.67,9.8,51.12,12.6,77.25,3.94,39.9-8.65,85.6-35.63,115.78-26.96,31.08-51.01,63.5-74.34,97.34-14.45,20.9-38.57,30.91-63.48,30.85h0Z"/>
  <path class="cls-1" d="m235.25,34.7c12.16.7,22.08,2.37,33.77,5.75,21.28,7.23,42.7,13.72,64.35,19.73,15.61,4.4,31.15,11,44.38,20.53,8.43,6.95,18.31,14.31,20.78,25.79,5.43,25.7,9.85,51.15,12.65,77.3,3.93,39.7-8.69,85.15-35.57,115.13-27.01,31.08-51.06,63.51-74.34,97.44-14.31,20.83-38.26,30.88-63.04,30.84-12.9-.82-22.83-2.79-35.12-6.84-22.65-9.09-45.27-18.25-68.24-26.49-16.7-5.65-31.48-17.14-42.39-30.79-11.24-13.95-17.63-31.76-19.96-49.35-3.91-33.31-6.68-66.72-10.37-100.05-3.07-30.97,7.56-63.58,26.78-87.95,21.82-27.7,45.88-49.18,75.25-68.6,20.9-13.58,45.97-22.42,71.07-22.43m.01-.99c-25.27.09-50.54,9.14-71.53,22.9-29.25,19.51-53.34,41.03-75.23,68.61-19.53,24.52-30.4,57.32-27.28,88.62,3.7,33.36,6.59,66.8,10.47,100.15,3.71,36.25,28.74,68.65,63.02,80.99,22.94,8.25,45.54,17.38,68.18,26.43,12.38,4.04,22.38,6.01,35.35,6.79,26.66.06,47.27-10.55,63.94-30.87,23.4-33.75,47.45-66.16,74.35-97.24,27.14-30.42,39.66-76.25,35.7-116.42-2.79-26.12-7.06-51.55-12.55-77.2-7.03-26.78-42.57-39.53-65.78-46.94-21.68-6.07-43.12-12.63-64.41-19.94-11.85-3.45-21.9-5.18-34.23-5.9h0Z"/>
</svg>