<?xml version="1.0" encoding="UTF-8"?>
<svg id="Layer_1" data-name="Layer 1" xmlns="http://www.w3.org/2000/svg" viewBox="0 0 500 500">
  <defs>
    <style>
      .cls-1 {
        fill: #fff;
      }
    </style>
  </defs>
  <path d="m261.47,439.71c-22.83-.05-43.81-12.04-60.51-26.75-33.66-29.41-62.93-56.23-81.8-97.11-8.02-15.96-10.57-33-10.07-50.68,4.49-42.96,5.88-85.84,12.87-128.56,4.38-26.09,21.92-49.45,47.23-58.34,23.71-8.01,47.77-14.22,71.98-20.51,6.99-1.86,13.86-2.8,20.68-2.86,18.72-.15,41.87-5.63,59.74,1.64,38.58,18.53,65.94,61.3,87.83,96,11.52,24.13,12.09,49.13,6.04,75-8.65,42.58-15.03,85.84-17.93,129.21-1.07,27.83-23.48,50.44-49.27,57.67-22.81,6.34-44.85,14.13-67.13,22.11-6.11,2.15-12.8,3.2-19.66,3.19h0Z"/>
  <path class="cls-1" d="m261.83,55.39c18.48-.23,41.36-5.59,58.94,1.64,38.43,18.71,65.82,61.34,87.85,95.93,11.57,23.9,12.33,48.75,6.29,74.46-8.72,42.61-15.22,85.79-18.03,129.21-.99,27.65-23.32,50.1-48.92,57.25-22.81,6.31-44.83,14.07-67.07,22.12-6.03,2.15-12.6,3.21-19.43,3.2-22.76-.08-43.68-12.01-60.35-26.65-33.67-29.33-63.25-56.1-81.83-97.12-7.83-15.85-10.27-32.74-9.77-50.23,4.46-42.99,5.69-85.85,12.8-128.58,4.42-25.88,21.76-49.05,46.87-57.92,23.59-8.31,47.83-14.26,72.03-20.49,6.97-1.84,13.85-2.75,20.61-2.81m.02-.99c-6.8.02-13.63.99-20.74,2.91-24.18,6.34-48.22,12.55-71.92,20.53-25.6,8.35-43.06,32.98-47.58,58.76-6.88,42.7-8.43,85.6-12.95,128.54-.5,17.88,2.16,35.04,10.38,51.12,19.16,40.74,48.12,67.61,81.77,97.11,17.65,14.36,37.07,26.83,60.66,26.85,6.78,0,13.61-1,19.89-3.19,22.31-7.91,44.37-15.73,67.18-22.09,25.98-7.31,48.46-30.09,49.62-58.09,3.01-43.31,9.25-86.65,17.84-129.21,6.06-26.06,5.7-51.17-5.79-75.54-21.75-34.82-49.08-77.7-87.82-96.07-18.18-7.28-41.48-1.77-60.55-1.64h0Z"/>
</svg>