<?xml version="1.0" encoding="UTF-8"?>
<svg id="Layer_1" data-name="Layer 1" xmlns="http://www.w3.org/2000/svg" viewBox="0 0 500 500">
  <defs>
    <style>
      .cls-1 {
        fill: #fff;
      }
    </style>
  </defs>
  <path d="m239.68,437.76c-9.36,0-18.31-1.18-26.56-3.53-24.18-7.02-46.84-17.09-70.36-25.95-23.72-9.01-38.57-33.69-43.79-57.5-10.15-43.14-29.73-80.2-46.11-120.94-10.36-26.73-5.21-57.3,10.98-80.58,16.13-23.28,32.23-46.59,48.24-69.96,15.89-23.12,43.29-36.25,71.12-36.25,8.14,0,16.27,1.09,24.22,3.21,27.94,7.46,56.37,12.8,84.36,20.08,26.68,7.45,50.37,26.34,61.03,52.3,17.72,42.83,26.11,87.65,39.88,131.68,8.48,26.07,6,56.05-9.77,78.92-16.7,23.72-34.52,46.37-53.2,68.56-21.54,26.08-56.82,39.56-90.04,39.96h0Z"/>
  <path class="cls-1" d="m183.21,43.53c8.09,0,16.19,1.08,24.09,3.17,27.97,7.43,56.43,12.73,84.44,20.01,26.53,7.41,50.08,26.18,60.72,51.97,17.79,42.85,26.11,87.66,39.81,131.75,8.37,25.92,5.97,55.71-9.72,78.45-16.71,23.72-34.55,46.37-53.25,68.56-21.45,25.94-56.53,39.39-89.59,39.78-9.31,0-18.21-1.17-26.41-3.52-24.18-7.04-46.82-17.18-70.33-26.02-23.6-8.95-38.35-33.52-43.49-57.2-10.09-43.18-29.67-80.14-46.12-120.87-10.35-26.58-5.16-56.99,10.93-80.14,16.13-23.28,32.23-46.59,48.24-69.96,15.79-22.98,43.03-36,70.67-35.99m-.03-.96c-28,0-55.57,13.24-71.56,36.51-16.01,23.36-32.11,46.67-48.24,69.95-15.16,24.8-21.85,52.93-11.02,81.02,16.32,40.75,35.88,77.92,46.1,121.01,5.29,23.96,20.21,48.71,44.09,57.79,23.51,8.87,46.19,18.88,70.38,25.88,8.43,2.4,17.44,3.54,26.71,3.54,33.36-.39,68.86-13.9,90.49-40.13,18.67-22.19,36.46-44.85,53.15-68.56,15.88-23.03,18.44-53.15,9.84-79.39-13.84-43.98-22.31-88.79-39.95-131.61-10.7-26.16-34.48-45.15-61.35-52.63-27.97-7.27-56.37-12.67-84.29-20.15-8.11-2.17-16.29-3.24-24.35-3.24h0Z"/>
</svg>