<?xml version="1.0" encoding="UTF-8"?>
<svg id="Layer_1" data-name="Layer 1" xmlns="http://www.w3.org/2000/svg" viewBox="0 0 500 500">
  <defs>
    <style>
      .cls-1 {
        fill: #fff;
      }
    </style>
  </defs>
  <path d="m264.17,439.71c-7.03.02-13.87-.63-20.09-2.41-19.71-5.51-38.87-9.32-59.24-11.21-28.52-1.36-47-28.32-49.23-54.7-3.37-43.85-10.78-86.92-15.99-130.54-3.31-22.98,7.69-43.35,20.33-61.49,27.74-36.09,54.75-73.12,86.64-105.72,13.34-12.54,33.43-17.93,51.33-18,7.11-.03,14.21.95,21.3,2.56,22.83,4.97,45.26,10.03,67.44,17.49,26.82,9.89,48.11,34.6,51.96,63.29,6.65,44.65,9.15,89.54,14,134.38.52,17.15-.66,35.53-12.52,49.16-30.03,29.26-60.9,57.12-89.91,87.55-18.9,17.87-39.41,29.54-66.02,29.66,0,0,0,0,0,0Z"/>
  <path class="cls-1" d="m277.95,56.12c7.08-.04,14.15.89,21.21,2.47,22.87,4.9,45.28,9.94,67.47,17.44,26.62,9.87,47.73,34.38,51.61,62.86,6.74,44.67,9.12,89.58,13.96,134.45.52,16.91-.56,35.15-12.3,48.59-30.15,29.17-60.94,57.08-89.95,87.54-18.79,17.8-39.25,29.57-65.75,29.73-6.99.02-13.74-.67-19.9-2.47-19.7-5.6-38.83-9.41-59.21-11.26-28.34-1.29-46.71-28.08-48.88-54.28-3.29-43.85-10.79-86.85-16.03-130.45-3.31-22.89,7.76-43.25,20.34-61.31,27.71-36.08,54.67-73.17,86.62-105.69,13.23-12.37,33.1-17.56,50.81-17.6m-.02-.97c-17.32.13-39.32,5.37-51.86,18.4-31.84,32.68-58.89,69.66-86.66,105.75-12.74,18.24-23.66,38.57-20.32,61.67,5.2,43.64,12.51,86.78,15.96,130.64,2.29,26.51,20.91,53.68,49.58,55.11,20.35,1.92,39.55,5.73,59.26,11.15,6.38,1.79,13.26,2.41,20.27,2.35,26.69-.09,47.28-11.68,66.29-29.58,29.01-30.39,59.95-58.21,89.87-87.56,12.02-13.83,13.29-32.33,12.76-49.74-4.86-44.8-7.48-89.68-14.04-134.3-3.81-28.87-25.32-53.81-52.32-63.71-22.18-7.41-44.61-12.48-67.41-17.53-7.23-1.68-14.35-2.66-21.4-2.66h0Z"/>
</svg>