<?xml version="1.0" encoding="UTF-8"?>
<svg id="Layer_1" data-name="Layer 1" xmlns="http://www.w3.org/2000/svg" viewBox="0 0 500 500">
  <defs>
    <style>
      .cls-1 {
        fill: #fff;
      }
    </style>
  </defs>
  <path d="m210.65,424.56c-12.59-1.05-20.72-3.23-32.17-8.57-33.59-19.4-67.19-38.79-100.78-58.19-19.32-11.19-31.77-32.37-32.15-54.68-.62-39.33-1.1-78.57-.31-117.9.86-27.39,12.16-58.21,35.8-74.05,31.79-21.96,63.9-43.3,97.12-63.05,8.66-5.37,21.57-8.21,31.32-8.37,8.55-.13,20.81,2.73,27.48,9.02,23.66,22.25,44.48,42.93,73.12,58.93,21.64,11.6,42.71,30.65,52.41,53.59,13.87,36.39,13.21,70.8,13.82,109.21.38,24.95-14.15,46.67-33.67,61.09-34.14,25.95-65.97,54.72-100.03,80.76-9.9,6.18-19.8,12.1-31.95,12.21Z"/>
  <path class="cls-1" d="m209.48,40.26c8.87-.52,20.66,2.74,27.29,8.98,23.71,22.25,44.58,42.94,73.27,58.94,21.47,11.48,42.34,30.4,51.94,53.15,13.86,36.39,13.22,70.78,13.82,109.19.38,24.78-14.05,46.36-33.42,60.7-34.12,25.96-65.95,54.74-100.03,80.76-9.83,6.12-19.65,11.99-31.7,12.09-10.38.35-23.07-3.08-31.92-8.5-33.59-19.4-67.19-38.79-100.78-58.19-19.17-11.1-31.52-32.11-31.9-54.26-.62-39.33-1.1-78.57-.31-117.9.85-27.18,12.07-57.76,35.53-73.48,31.8-21.98,63.92-43.36,97.13-63.15,8.59-5.34,20.97-8.6,31.08-8.32m0-1c-10.26-.29-22.82,3-31.55,8.4-33.22,19.7-65.32,41.02-97.1,62.95-23.81,15.95-35.22,47.05-36.08,74.62-.8,39.33-.31,78.57.31,117.9.37,22.56,12.87,43.82,32.4,55.11,33.59,19.4,67.19,38.79,100.78,58.19,10.45,4.86,20.59,9.04,32.42,8.64,12.25-.09,22.21-6.09,32.2-12.32,34.05-26.06,65.88-54.83,100.03-80.76,19.65-14.5,34.31-36.37,33.92-61.49-.61-38.41.08-72.83-13.81-109.22-9.8-23.18-31.03-42.32-52.88-54.04-28.6-16.01-49.35-36.69-72.97-58.92-6.71-6.34-18.67-9.59-27.66-9.06h0Z"/>
</svg>