<?xml version="1.0" encoding="UTF-8"?>
<svg id="Layer_1" data-name="Layer 1" xmlns="http://www.w3.org/2000/svg" viewBox="0 0 500 500">
  <defs>
    <style>
      .cls-1 {
        fill: #fff;
      }
    </style>
  </defs>
  <path d="m264.31,457.22c-16.06-1.25-33.44-7.73-46.82-17.69-18.59-14.22-37.16-28.47-55.98-42.38-26.44-18.8-39.77-52.06-34.46-83.83,7.29-40.1,14.63-80.19,21.93-120.29,4.18-22.94,18.36-43.47,38.41-55.39,35.23-21.01,70.02-42.73,104.86-64.39,14.26-7.5,27.42-11.7,42.86-12.12,15.72-.43,33.44,4.91,46.81,14.7,18.75,13.21,37.4,26.56,55.98,40.02,26.66,19.98,40.7,55.29,34.46,88.22-7.05,40.92-14.51,81.77-21.93,122.62-4.2,23.04-18.39,43.69-38.41,55.85-34.95,21.22-69.9,42.43-104.86,63.65-14.4,7.44-26.65,10.63-42.85,11.03,0,0,0,0,0,0Z"/>
  <path class="cls-1" d="m335.11,61.64c16.3.23,33.24,4.88,46.53,14.62,18.75,13.21,37.4,26.57,55.98,40.03,26.49,19.86,40.46,54.96,34.26,87.69-7.05,40.92-14.5,81.77-21.93,122.62-4.17,22.9-18.28,43.42-38.18,55.51-34.95,21.22-69.9,42.43-104.86,63.65-13.7,7.07-26.9,11.75-42.6,10.96-16.79-.52-33.24-7.68-46.53-17.58-18.59-14.22-37.16-28.47-55.98-42.39-26.28-18.7-39.53-51.76-34.26-83.34,7.29-40.09,14.63-80.18,21.93-120.27,4.15-22.8,18.25-43.2,38.18-55.06,35.24-21.01,70.02-42.72,104.86-64.39,14.18-7.46,26.62-10.95,42.6-12.05m0-1c-15.87,0-29.29,4.93-43.12,12.18-34.84,21.65-69.63,43.36-104.86,64.38-20.17,12-34.44,32.65-38.64,55.73-7.3,40.1-14.64,80.2-21.93,120.3-5.35,32,8.04,65.39,34.67,84.32,18.82,13.91,37.39,28.15,55.98,42.37,13.45,10.01,30.11,17.26,47.1,17.8,15.9.8,29.24-3.95,43.12-11.1,34.95-21.22,69.9-42.43,104.86-63.65,20.14-12.24,34.42-33,38.64-56.18,7.42-40.85,14.87-81.7,21.93-122.61,6.29-33.16-7.82-68.64-34.67-88.75-18.58-13.45-37.22-26.8-55.98-40-13.45-9.83-30.62-14.54-47.1-14.78h0Z"/>
</svg>