<?xml version="1.0" encoding="UTF-8"?>
<svg id="Layer_1" data-name="Layer 1" xmlns="http://www.w3.org/2000/svg" viewBox="0 0 500 500">
  <defs>
    <style>
      .cls-1 {
        fill: #fff;
      }
    </style>
  </defs>
  <path d="m247.71,417.43c-8.69,0-17.07-1.67-25.8-4.07-21.89-5.53-43.82-10.24-65.3-17.28-23.68-8.37-41.75-27.37-49.62-51.14-10.25-33.35-13.11-67.74-21.03-101.57-5.51-22.98-1.75-48.99,13.3-67.73,13.41-16.51,27.12-32.77,40.93-48.94,15.37-18.02,37.74-30.27,61.73-30.29,8.7,0,17.48,1.26,25.2,4.66,18.89,8.86,37.23,18.33,56.78,25.71,23.5,8.27,42.13,28.82,47.53,53.21,7.64,31.61,21.95,60.17,31.69,91,8.13,26.39-1.33,50.52-17.15,71.54-14.23,16.62-28.42,33.28-42.24,50.24-14.24,17.29-34.6,23.19-56.03,24.64h0Z"/>
  <path class="cls-1" d="m201.88,96.95c8.65,0,17.39,1.23,25.01,4.65,18.83,8.97,37.12,18.46,56.68,25.82,23.36,8.19,41.88,28.64,47.19,52.89,7.59,31.64,21.96,60.09,31.81,90.88,8.17,26.22-1.38,50.26-17.09,71.13-14.23,16.62-28.42,33.27-42.24,50.24-13.17,15.99-34.99,24.88-55.57,24.39-8.63,0-16.94-1.68-25.65-4.02-21.95-5.43-43.91-10.1-65.41-17.17-23.51-8.33-41.46-27.19-49.33-50.77-10.34-33.38-13.09-67.79-20.91-101.69-5.4-22.8-1.78-48.62,13.16-67.24,13.4-16.52,27.12-32.77,40.93-48.94,15.29-17.92,37.54-30.14,61.42-30.19m.07-1.07c-24.09.03-46.6,12.29-62.03,30.39-13.8,16.18-27.51,32.44-40.93,48.95-15.18,18.87-19.08,45.08-13.45,68.23,8.01,33.76,10.98,68.13,21.15,101.45,7.87,23.95,26.06,43.1,49.91,51.5,21.45,7.02,43.36,11.76,65.19,17.39,8.88,2.49,17.36,4.12,25.95,4.12,20.92.46,43.11-8.67,56.49-24.9,13.82-16.96,28.01-33.62,42.23-50.24,15.92-21.18,25.29-45.38,17.2-71.95-9.65-30.86-23.87-59.54-31.57-91.12-5.48-24.52-24.24-45.18-47.87-53.52-19.56-7.39-37.95-16.85-56.9-25.6-7.93-3.43-16.8-4.67-25.39-4.67h0Z"/>
</svg>