<?xml version="1.0" encoding="UTF-8"?>
<svg id="Layer_1" data-name="Layer 1" xmlns="http://www.w3.org/2000/svg" viewBox="0 0 500 500">
  <defs>
    <style>
      .cls-1 {
        fill: #fff;
      }
    </style>
  </defs>
  <path d="m201.45,393.39c-13.24-1.68-21.18-4.46-32.81-11.02-30.8-21.51-60.15-44.96-90.54-67.04-21.13-15.01-36.77-38.32-36.36-64.93.57-34.77,1.15-69.53,1.71-104.3.38-23.65,14.08-45.98,35.72-55.94,34.34-16.01,64.78-35.57,95.69-57.34,12.05-6.51,21.23-10.03,33.69-10.04,12.16,0,21.7,3.59,33.74,9.43,31.54,18.9,63.33,36.2,96.94,51.15,23.04,10.22,41.15,32.51,44.64,57.69,4.34,35.41,3.88,69.07-1.2,104.4-4.22,26.14-22.41,48.5-43.06,64.02-33.78,25.71-67.39,50.79-103.43,73.29-12.43,6.46-20.81,9.29-34.73,10.64,0,0,0,0,0,0Z"/>
  <path class="cls-1" d="m208.56,23.27c13.23,1.2,21.56,3.6,33.53,9.41,31.55,18.93,63.34,36.23,96.99,51.15,22.87,10.11,40.83,32.22,44.3,57.21,4.35,35.41,3.89,69.08-1.2,104.4-4.2,25.96-22.23,48.19-42.73,63.65-33.77,25.77-67.38,50.85-103.49,73.28-12.35,6.38-20.7,9.18-34.52,10.51-13.13-1.65-21-4.4-32.53-10.89-30.82-21.49-60.17-44.94-90.54-67.04-20.98-14.92-36.54-38.11-36.13-64.55.58-34.76,1.16-69.52,1.71-104.28.37-23.47,14.01-45.62,35.5-55.48,34.38-15.97,64.81-35.5,95.69-57.36,11.95-6.49,19.87-8.78,33.41-10.03m0-1.02c-13.74,1.22-21.81,3.54-33.98,10.06-30.95,21.7-61.4,41.27-95.7,57.33-21.86,10.09-35.57,32.52-35.94,56.41-.56,34.77-1.14,69.54-1.7,104.31-.4,26.76,15.33,50.23,36.59,65.31,30.4,22.06,59.76,45.51,90.55,67.04,11.74,6.63,19.72,9.46,33.08,11.15,14.03-1.36,22.43-4.24,34.95-10.78,35.97-22.57,69.58-47.64,103.37-73.29,20.85-15.62,39.15-38.03,43.4-64.39,5.08-35.33,5.55-68.98,1.21-104.39-3.52-25.36-21.81-47.85-44.99-58.17-33.58-14.98-65.35-32.29-96.88-51.15-12.14-5.86-20.55-8.28-33.95-9.44h0Z"/>
</svg>