<?xml version="1.0" encoding="UTF-8"?>
<svg id="Layer_1" data-name="Layer 1" xmlns="http://www.w3.org/2000/svg" viewBox="0 0 500 500">
  <defs>
    <style>
      .cls-1 {
        fill: #fff;
      }
    </style>
  </defs>
  <path d="m181.85,427.38c-8.04,0-15.89-2.67-22.11-7.95-28.6-25.09-52.38-53.77-75.88-83.58-11.2-14.54-15.23-35.71-11.66-53.62,7.6-40.48,19.38-76.87,31.69-115.75,1.76-5.64,6.99-10.17,13.88-12.71,35.25-13.48,59.6-43.8,95.12-57.93,5.49-1.96,12.01-2.54,18.59-1.94,9.61.88,21.16,5.32,28.86,11.26,32.45,23.8,65.08,47.4,96.6,72.44,10.82,8.59,15.57,22.74,12.19,36.12-11.07,43.03-22.54,85.96-33.8,128.95-1.99,9-9.98,18.77-18.41,22.5-39.92,19.55-79.74,39.32-119.72,58.74-4.75,2.28-10.06,3.47-15.34,3.47h0Z"/>
  <path class="cls-1" d="m231.5,94.41c9.58.78,20.86,5.24,28.45,11.11,32.47,23.82,65.13,47.42,96.67,72.48,10.67,8.47,15.38,22.41,12.04,35.61-11.07,43.03-22.55,85.96-33.81,128.94-1.96,8.88-9.84,18.5-18.15,22.18-39.92,19.55-79.74,39.32-119.72,58.75-4.68,2.25-9.91,3.42-15.12,3.42-7.92,0-15.66-2.64-21.79-7.86-28.61-25.14-52.38-53.88-75.88-83.74-11.03-14.34-15.02-35.21-11.49-52.86,7.6-40.47,19.46-76.89,31.65-115.8,1.73-5.58,6.87-10.04,13.66-12.52,35.27-13.38,59.69-43.68,95.18-57.79,5.41-1.93,11.77-2.58,18.32-1.91m-.02-1.01c-6.66-.68-13.14-.07-18.86,1.96-35.55,14.15-59.84,44.48-95.06,58.07-6.98,2.6-12.3,7.2-14.1,12.9-12.43,38.85-24.14,75.21-31.74,115.7-3.63,18.17.44,39.62,11.83,54.37,23.5,29.76,47.28,58.39,75.88,83.43,6.45,5.48,14.41,8.04,22.43,8.04,5.29,0,10.62-1.14,15.56-3.51,39.99-19.4,79.81-39.18,119.72-58.72,8.55-3.79,16.65-13.69,18.68-22.82,11.26-42.98,22.73-85.92,33.8-128.95,3.44-13.57-1.34-27.91-12.33-36.62-31.49-25.04-64.1-48.62-96.53-72.41-7.8-6.04-19.42-10.63-29.27-11.42h0Z"/>
</svg>