<?xml version="1.0" encoding="UTF-8"?>
<svg id="Layer_1" data-name="Layer 1" xmlns="http://www.w3.org/2000/svg" viewBox="0 0 500 500">
  <defs>
    <style>
      .cls-1 {
        fill: #fff;
      }
    </style>
  </defs>
  <path d="m243,429.07c-9.64.2-20.86-1.93-29.75-5.68-19.98-7.94-39.85-16.05-59.55-24.65-26.86-11.23-45.79-37.94-48.14-66.78-2.11-29.57-4.62-59.12-6.85-88.68-1.89-24.69,9.25-49.06,30.28-62.53,25.32-16.6,46.78-35.14,67.41-57.27,12.21-12.63,30.22-19.89,47.5-19.86,9.71.02,21.76,2.34,30.73,6.64,20.53,9.24,41.09,18.37,61.9,26.96,25.74,10.83,44.07,36.27,45.64,64.32,2.19,29.3,3.99,58.62,6.07,87.92,1.69,24.73-8.31,49.66-25.06,67.67-20.9,21.98-43.2,39.63-68.7,56-15.06,9.96-33.5,15.59-51.49,15.93Z"/>
  <path class="cls-1" d="m243.9,104.12c9.92-.22,21.65,2.35,30.58,6.65,20.53,9.26,41.09,18.39,61.92,26.98,12.63,5.16,23.6,13.95,31.49,25.07,8.05,11.39,12.77,24.91,13.83,38.8,2.21,29.29,3.97,58.6,6.05,87.9,1.67,24.58-8.21,49.37-24.82,67.31-20.88,22.03-43.16,39.66-68.7,56-15,9.88-33.35,15.43-51.24,15.74-9.56.21-20.69-1.89-29.51-5.6-19.98-7.92-39.84-16.03-59.53-24.63-13.27-5.87-24.9-15.19-33.4-26.96-8.31-11.52-13.45-25.23-14.46-39.42-2.1-29.58-4.64-59.13-6.87-88.7-1.89-24.53,9.24-48.71,30.16-62.05,25.36-16.57,46.81-35.09,67.4-57.27,12.08-12.56,29.51-20.28,47.1-19.82m0-1.01c-17.87-.5-35.55,7.19-47.9,19.9-20.67,22.07-42.14,40.63-67.42,57.26-21.18,13.62-32.3,38.14-30.39,63.02,2.22,29.56,4.7,59.09,6.82,88.66,2.38,28.94,21.45,55.91,48.42,67.18,19.71,8.6,39.59,16.71,59.57,24.67,8.97,3.78,20.27,5.95,30,5.77,19.06-.38,35.44-6.84,51.73-16.13,25.44-16.42,47.76-34.08,68.69-56.01,16.9-18.1,27.01-43.12,25.3-68.03-2.08-29.31-3.91-58.64-6.1-87.94-1.57-28.18-20.13-53.87-45.97-64.77-20.8-8.6-41.35-17.72-61.88-26.95-9.02-4.31-20.87-6.88-30.88-6.64h0Z"/>
</svg>