<?xml version="1.0" encoding="UTF-8"?>
<svg id="Layer_1" data-name="Layer 1" xmlns="http://www.w3.org/2000/svg" viewBox="0 0 500 500">
  <defs>
    <style>
      .cls-1 {
        fill: #fff;
      }
    </style>
  </defs>
  <path d="m183.14,431.12c-19.44.06-39.33-10.37-47.94-28.34-19.49-37.02-41.46-62.58-74.44-88.11-16.24-12.91-21.04-36.93-15.27-56.26,10.92-38.52,23.38-76.43,32.3-115.5,5.4-23.92,25.81-41.38,49.13-46.97,28.97-6.76,58.29-11.15,87.41-17.08,4.64-.97,9.45-1.42,14.19-1.47,19.44-.18,39.43,8.35,54.69,20.14,33.21,25.78,53.07,53.42,72.49,90.48,10.29,18.45,15.9,41,10.66,61.86-8.59,36.21-15.88,72.44-26.3,108.21-7.05,23.98-25.92,44.2-50.94,49.17-30.85,6.3-61.01,15.1-91.65,22.23-4.72,1.08-9.54,1.63-14.32,1.63h0Z"/>
  <path class="cls-1" d="m228.54,77.85c19.47-.36,39.18,8.21,54.38,19.86,33.35,25.69,53.17,53.3,72.49,90.48,10.15,18.37,15.66,40.78,10.49,61.5-8.51,36.21-15.78,72.38-26.23,108.12-7.02,23.8-25.72,43.91-50.58,48.82-30.89,6.28-61.06,15.14-91.72,22.32-4.69,1.08-9.48,1.62-14.21,1.62-19.3.04-38.99-10.39-47.48-28.25-19.4-37.13-41.3-62.68-74.44-88.11-16.18-12.73-21.01-36.55-15.24-55.73,10.99-38.54,23.49-76.47,32.37-115.59,5.33-23.74,25.62-41.03,48.74-46.59,28.94-6.78,58.23-11.11,87.34-17,4.6-.96,9.33-1.45,14.08-1.45m-.06-.93c-4.77,0-9.56.48-14.3,1.48-29.14,5.97-58.49,10.43-87.48,17.16-23.47,5.61-44.05,23.31-49.52,47.35-8.95,39.02-21.38,76.9-32.22,115.4-5.81,19.51-1.04,43.71,15.29,56.8,32.83,25.61,54.87,51.19,74.44,88.1,8.73,18.04,28.87,28.47,48.41,28.42,4.77,0,9.61-.54,14.42-1.64,30.62-7.09,60.78-15.83,91.58-22.15,25.12-5.03,44.23-25.4,51.3-49.51,10.4-35.81,17.71-72.09,26.38-108.31,5.56-22.01-1.3-42.56-10.84-62.21-19.51-36.94-39.42-64.63-72.48-90.48-15.29-11.91-35.28-20.75-55-20.42h0Z"/>
</svg>