<?xml version="1.0" encoding="UTF-8"?>
<svg id="Layer_1" data-name="Layer 1" xmlns="http://www.w3.org/2000/svg" viewBox="0 0 500 500">
  <defs>
    <style>
      .cls-1 {
        fill: #fff;
      }
    </style>
  </defs>
  <path d="m258.09,420.31c-11.27-.84-21.93-2.05-31.35-9.12-26.4-18.2-52.43-36.9-78.63-55.38-19.34-13.76-34.63-36.76-37.8-60.47-3.94-36.39-.87-72.58,1.54-109,1.4-20.56,12.84-41.66,32.68-49.6,32.04-11.75,65.61-16.59,98.39-25.69,8.93-2.92,19.76-5.29,28.68-4.9,12.9.56,21.8,3.52,33.8,9.85,29.33,19.73,58.74,39.33,88.24,58.81,19.32,12.68,31.83,34.63,30.3,58.01-2.34,34.18-5.11,67.98-9.86,101.92-3.05,20.76-20.19,37.05-39.82,42.75-31.5,9.3-60.36,21.04-89.34,36.5-7.72,4.1-17.59,6.16-26.83,6.33,0,0,0,0,0,0Z"/>
  <path class="cls-1" d="m271.59,106.64c13.42,1.26,21.58,3.46,33.46,9.72,29.32,19.74,58.74,39.33,88.23,58.81,19.17,12.59,31.66,34.37,30.13,57.59-2.36,34.17-5.16,67.96-9.89,101.9-2.99,20.08-20.07,37.34-39.54,42.36-31.53,9.25-60.38,20.95-89.34,36.47-7.63,4.08-17.39,6.14-26.57,6.3-11.21-.84-21.82-2.05-31.19-9.07-26.44-18.18-52.49-36.89-78.7-55.4-19.16-13.65-34.24-36.46-37.39-59.95-3.96-36.39-.93-72.59,1.5-109.01,1.4-20.38,12.72-41.29,32.37-49.18,32.04-11.79,65.62-16.63,98.41-25.7,8.88-2.89,19.15-4.76,28.51-4.85m.03-.98c-9.46.05-19.88,2-28.85,4.96-32.75,9.15-66.32,13.98-98.36,25.69-20.05,7.99-31.6,29.24-32.99,50.01-2.39,36.42-5.5,72.59-1.59,108.99,3.15,24.06,18.56,47.09,38.21,60.98,26.19,18.45,52.2,37.15,78.56,55.36,9.45,7.11,20.19,8.33,31.5,9.16,8.76.08,19.37-2.12,27.1-6.35,29-15.39,57.87-27.17,89.34-36.52,19.81-5.79,37-22.19,40.09-43.14,4.78-33.94,7.52-67.75,9.84-101.93,1.54-23.58-10.97-45.63-30.47-58.43-29.5-19.48-58.91-39.08-88.24-58.81-12.13-6.37-20.48-8.67-34.14-9.97h0Z"/>
</svg>