<?xml version="1.0" encoding="UTF-8"?>
<svg id="Layer_1" data-name="Layer 1" xmlns="http://www.w3.org/2000/svg" viewBox="0 0 500 500">
  <defs>
    <style>
      .cls-1 {
        fill: #fff;
      }
    </style>
  </defs>
  <path d="m231.62,396.05c-9.57-.02-18.95-2.01-26.94-4.65-30.09-9.27-58.47-18.85-86.79-32.87-23.42-11.9-42.59-34.2-45.78-60.89-4.03-33.62-9.36-67.06-13.78-100.63-3.25-24.49,8.07-49.92,31.45-60.02,32.73-14.68,55.13-33.79,77.79-61.29,12.5-11.82,23.43-16.63,40.03-17.68,8.91-.56,20.32,2.23,28.4,6.62,31.15,16.08,61.77,34.05,95.4,44.56,22.52,7.38,36.49,29.46,39.35,52.17,3.98,31.89,6.66,63.93,10.27,95.87,2.84,25.57-7.83,50.81-23.91,70.24-23.14,27.33-47.59,43.61-80.37,57.79-15.07,5.93-28.92,9.64-45.11,10.79h0Z"/>
  <path class="cls-1" d="m207.63,58.56c9.15-.33,20.25,2.26,28.26,6.66,31.13,16.17,61.77,34.21,95.47,44.64,22.37,7.27,36.17,29.22,39.02,51.73,4,31.86,6.62,63.86,10.19,95.77,2.79,25.41-7.73,50.51-23.63,69.89-23.08,27.46-47.48,43.72-80.37,57.78-15.01,5.82-28.82,9.46-44.91,10.55-9.51-.03-18.79-1.96-26.69-4.53-30.13-9.13-58.43-18.73-86.73-32.79-23.24-11.85-42.35-34-45.51-60.53-4.01-33.66-9.4-67.13-13.85-100.73-3.25-24.33,8.07-49.53,31.33-59.45,32.84-14.58,55.2-33.66,77.78-61.29,12.35-11.8,22.68-16.08,39.63-17.71m-.06-1.07c-17.24,1.53-27.75,5.78-40.43,17.64-22.74,27.35-45.17,46.51-77.79,61.28-23.55,10.27-34.81,35.9-31.56,60.59,4.39,33.54,9.65,66.95,13.7,100.53,3.22,26.89,22.42,49.29,46.05,61.25,28.34,13.99,56.81,23.56,86.86,32.96,8.18,2.75,17.77,4.77,27.2,4.77,16.3-1.17,30.16-4.98,45.31-11.02,32.66-14.29,57.16-30.6,80.36-57.79,16.28-19.5,27.09-44.82,24.19-70.59-3.63-31.97-6.38-64.04-10.34-95.97-2.87-22.96-16.95-45.13-39.68-52.61-33.58-10.58-64.17-28.48-95.34-44.47-8.14-4.38-19.29-6.84-28.53-6.58h0Z"/>
</svg>