<?xml version="1.0" encoding="UTF-8"?>
<svg id="Layer_1" data-name="Layer 1" xmlns="http://www.w3.org/2000/svg" viewBox="0 0 500 500">
  <defs>
    <style>
      .cls-1 {
        fill: #fff;
      }
    </style>
  </defs>
  <path d="m197.76,444.54c-5.32,0-10.62-.74-15.76-2.2-11.2-3.18-22.36-6.43-33.5-9.79-21.91-6.75-38.05-27.1-39.52-50-2.22-35.64-4.22-71.3-6.32-106.95-.71-12.34,2.61-25.09,10.3-34.9,16.76-19.69,35.31-37.15,53.5-55.47,10.13-9.41,28.22-13.36,41.63-13.44,5.29-.03,10.61.77,15.73,2.29,11.15,3.3,22.31,6.61,33.46,9.91,22.06,6.57,38.18,26.87,39.57,49.85,2.1,35.39,3.66,70.87,6.56,106.21,1.56,8.87-1.33,21.17-7.93,27.65-18.13,18.82-36.77,36.92-53.9,56.68-10.38,12.82-27.69,19.74-43.83,20.16h0Z"/>
  <path class="cls-1" d="m208.08,172.3c5.27,0,10.52.76,15.59,2.26,11.15,3.3,22.31,6.61,33.46,9.91,21.86,6.51,37.83,26.62,39.22,49.4,2.1,35.39,3.66,70.87,6.57,106.2,1.55,8.8-1.32,20.99-7.87,27.43-18.11,18.81-36.75,36.91-53.88,56.64-10.29,12.69-27.45,19.49-43.41,19.92-5.27,0-10.53-.73-15.62-2.17-11.2-3.18-22.36-6.43-33.5-9.79-21.71-6.7-37.7-26.86-39.17-49.55-2.23-35.65-4.23-71.31-6.32-106.96-.7-12.2,2.56-24.81,10.18-34.49,16.76-19.63,35.33-37.06,53.46-55.36,10.04-9.36,27.9-13.3,41.29-13.43m0-1c-13.6.15-31.75,3.96-41.97,13.45-18.23,18.33-36.79,35.83-53.54,55.58-7.76,9.93-11.15,22.82-10.42,35.3,2.11,35.65,4.12,71.3,6.33,106.94,1.47,23.15,17.73,43.64,39.88,50.44,11.15,3.35,22.31,6.6,33.5,9.79,5.27,1.5,10.62,2.23,15.9,2.23,16.32-.4,33.78-7.43,44.25-20.41,17.12-19.78,35.76-37.9,53.91-56.72,6.67-6.53,9.58-18.93,7.99-27.87-2.9-35.34-4.46-70.82-6.56-106.21-1.4-23.23-17.62-43.66-39.93-50.3-11.15-3.3-22.31-6.61-33.46-9.91-5.25-1.55-10.59-2.31-15.88-2.31h0Z"/>
</svg>