<?xml version="1.0" encoding="UTF-8"?>
<svg id="Layer_1" data-name="Layer 1" xmlns="http://www.w3.org/2000/svg" viewBox="0 0 500 500">
  <defs>
    <style>
      .cls-1 {
        fill: #fff;
      }
    </style>
  </defs>
  <path d="m272.35,411.3c-5.24,1.79-10.36,2.79-15.14,2.99-23.57.09-46.97-4.66-69.73-10.58-11.98-3.29-23.09-11.14-27.76-22.97-15.14-40.99-32.95-80.95-49.46-121.39-5.38-12.98-4.9-28.26,3.09-40.09,14.39-20.37,26.49-40.69,37.3-63.19,7.34-14.41,22.97-25.13,39.41-24.86,4.39.07,8.92.69,13.31,2.14,24.84,8.4,48.92,18.72,73.8,26.95,14.63,4.99,26.63,17.23,32.13,31.67,13.63,32.84,24.19,68.04,40.07,99.83,5.08,7.71,7.13,20.81,2.36,29.2-8.96,18.78-19.57,35.84-31.37,52.95-11.37,16.17-29.01,31.06-47.97,37.35,0,0,0,0,0,0Z"/>
  <path class="cls-1" d="m190.06,131.75c4.41,0,8.83.7,13.18,2.15,24.86,8.48,48.96,18.88,73.88,27.12,14.5,4.93,26.37,17.1,31.82,31.4,13.23,31.85,22.5,69.86,40.01,99.64,5.05,7.64,7,20.59,2.32,28.9-8.89,18.87-19.55,35.93-31.42,53.05-11.29,15.96-28.74,30.6-47.48,36.83-5.18,1.78-10.24,2.77-14.96,3-23.56.2-46.92-4.43-69.67-10.36-11.81-3.25-22.82-10.98-27.43-22.66-15.13-41.06-32.98-81.05-49.54-121.54-5.34-12.84-4.91-27.97,3.06-39.66,14.59-20.21,26.55-40.7,37.29-63.2,7.23-14.28,22.42-25.22,38.94-24.67m-.04-1.07c-16.87-.52-32.4,10.46-39.87,25.04-10.85,22.45-23,42.79-37.3,63.19-7.98,11.97-8.51,27.41-3.12,40.52,16.48,40.4,34.24,80.31,49.39,121.23,4.75,11.96,15.97,19.96,28.1,23.29,22.78,5.92,46.21,10.78,69.8,10.81,4.92-.19,10.1-1.21,15.32-2.99,19.18-6.74,36.92-21.25,48.47-37.88,11.72-17.1,22.29-34.16,31.32-52.85,5.66-9.92,1.43-20.08-2.39-29.49-15.85-31.89-26.47-67.1-40.13-100.02-5.55-14.54-17.73-26.9-32.44-31.95-24.84-8.23-48.89-18.46-73.71-26.78-4.5-1.47-9-2.13-13.43-2.13h0Z"/>
</svg>