<?xml version="1.0" encoding="UTF-8"?>
<svg id="Layer_1" data-name="Layer 1" xmlns="http://www.w3.org/2000/svg" viewBox="0 0 500 500">
  <defs>
    <style>
      .cls-1 {
        fill: #fff;
      }
    </style>
  </defs>
  <path d="m181.82,407.87c-29.1.57-55.06-18.41-68.85-43.02-11.9-21.53-24.2-42.74-37.21-63.62-15.64-25.73-9.61-54.73,1.04-80.88,12.85-28.71,25.53-57.46,46.59-81.27,16.32-18.81,41.13-29.58,65.86-30.33,30.32-.84,60.64-1.63,90.96-2.48.84-.02,1.68-.04,2.52-.03,25.89.02,52.32,12.6,66.18,34.95,13.6,22.09,26.09,44.79,38.51,67.55,11.7,24.71,18.18,56.45-1.54,79.37-20.36,22.76-36.06,45.47-49.29,73.1-11.2,24.47-34.21,42.31-61.59,43.25-30.22,1.11-60.44,2.27-90.66,3.37-.84.03-1.68.05-2.52.05Z"/>
  <path class="cls-1" d="m282.71,106.69c25.7.02,51.93,12.41,65.71,34.59,13.62,22.08,26.1,44.79,38.52,67.56,11.6,24.53,18.19,56.13-1.54,78.83-20.47,22.7-36.11,45.39-49.3,73.06-11.08,24.34-33.91,42.19-61.15,43.12-30.22,1.11-60.43,2.28-90.65,3.41-.83.03-1.67.05-2.5.05-28.94.59-54.76-18.41-68.45-42.88-11.89-21.53-24.18-42.74-37.21-63.6-15.55-25.51-9.46-54.43,1.03-80.39,12.78-28.75,25.43-57.55,46.58-81.3,16.27-18.64,40.92-29.24,65.49-30,30.32-.84,60.65-1.62,90.97-2.44.83-.02,1.68-.03,2.51-.03m.03-.9c-.84,0-1.69.01-2.54.04-30.31.87-60.63,1.69-90.94,2.53-24.88.76-49.87,11.71-66.23,30.68-20.96,23.86-33.69,52.56-46.6,81.23-10.8,26.32-16.78,55.45-1.06,81.37,12.99,20.9,25.31,42.1,37.22,63.63,13.9,24.8,39.95,43.72,69.25,43.17.84,0,1.69-.01,2.53-.04,30.23-1.08,60.45-2.21,90.68-3.32,27.5-.95,50.73-18.8,62.03-43.38,13.27-27.58,29.02-50.31,49.28-73.14,19.69-23.12,13.31-55.04,1.54-79.91-12.43-22.75-24.92-45.44-38.51-67.53-13.95-22.56-40.5-35.32-66.65-35.31h0Z"/>
</svg>