<?xml version="1.0" encoding="utf-8"?>
<!-- Generator: Adobe Illustrator 27.6.1, SVG Export Plug-In . SVG Version: 6.00 Build 0)  -->
<svg version="1.1" id="Layer_1" xmlns="http://www.w3.org/2000/svg" xmlns:xlink="http://www.w3.org/1999/xlink" x="0px" y="0px"
	 viewBox="0 0 500 500" style="enable-background:new 0 0 500 500;" xml:space="preserve">
<style type="text/css">
	.st0{fill:none;stroke:#000000;stroke-width:2;stroke-miterlimit:10;}
</style>
<path class="st0" d="M168.8,444.8c-17.1,0-36.8-9-45-24.8c-20.9-37.6-47.9-68-73.8-102c-11.3-17.3-7.1-36.3,0-54.1
	c29.9-58.1,50.4-118.6,73.8-179.4c6.6-18.3,26.3-29.3,45-29.3c54.9,0,108.1-0.6,162.5,8.7c20.1,3.2,37.8,18.7,48.3,35.4
	c26.8,41.9,55.1,82.5,80.3,125.4c10.3,16.4,6.6,35.8,0,52.6c-24,50-48.5,95.6-80.3,141.1c-10.6,15.3-29.2,26.9-48.3,26.4
	C277.1,444.8,222.9,444.8,168.8,444.8L168.8,444.8z"/>
</svg>
