<?xml version="1.0" encoding="UTF-8"?>
<svg id="Layer_1" data-name="Layer 1" xmlns="http://www.w3.org/2000/svg" viewBox="0 0 500 500">
  <defs>
    <style>
      .cls-1 {
        fill: #fff;
      }
    </style>
  </defs>
  <path class="cls-1" d="m65.74,129.51c0,.79-.79,1.38-2.07,1.58h-.39c-1.09,0-2.76-.3-5.23-.3-.59,0-1.28.1-1.97.1-1.18.1-1.78.2-2.47.2-.49,0-.99-.1-1.78-.1-.3,0-.59-.1-.89-.1s-.69.1-1.09.1c-.69,0-1.48.1-2.57.2h-2.07c-.69,0-1.48,0-2.07-.1-1.18-.1-2.27-.2-3.26-.2-1.97,0-3.36.39-4.05,1.48l-1.09,1.68c-.39.59-.69,1.28-1.09,2.37-.79,2.07-.89,2.57-2.27,4.54-.99,1.18-.89,3.06-1.78,4.34-.69,1.09-.89,2.47-1.28,3.65-.69,2.57-1.48,5.13-1.68,7.9-.1.89-.1,1.88-.1,2.76v1.09c0,1.18.2,2.37.99,3.16,1.18,1.18,2.76,1.38,3.26,1.48.89.1,1.48.2,1.97.2.3,0,.59-.1.79-.1l1.09-.39c.3-.2.79-.39,1.48-.69.99-.49,1.68-1.09,2.27-1.68l1.48-1.38c.69-.79.89-.89,1.48-1.48.1-.2.39-.49.79-.89l1.68-1.78c.3-.39.69-.59.99-.59.1,0,.2,0,.3.1.2.2.2.39.2.59,0,.59-.39,1.48-.79,2.07-.39.39-.69.89-.89,1.09-.1.2-.3.49-.79.99l-2.07,2.37c-.89.79-1.58,1.68-2.37,2.37l-1.28,1.09c-.59.49-.99.69-1.68.89l-.89.3c-.69.3-1.58.79-2.86,1.88-.79.69-2.47,1.18-4.74,1.18h-.69c-.79,0-1.48-.1-2.07-.1h-2.17c-.39,0-.49-.1-.79-.2l-.79-.59-1.48-.69c-.79-.3-1.38-1.09-1.38-2.07v-.99c0-.99-.1-1.68-.2-2.27-.1-.39-.2-.79-.2-1.18v-.49c.2-.89.2-1.88.39-2.76.2-.89.39-1.48.69-1.88,1.18-1.28,2.27-3.36,2.66-5.13.2-.69.39-1.18.59-1.58.3-.59.59-1.09.79-1.78l.49-2.27c.3-.89.59-1.78.99-2.57.59-1.09.89-2.17.99-3.06l.2-1.09c0-.39.1-.59.1-.69.39-.99.59-1.88.69-2.57.1-.59.2-1.28.39-1.78l.69-1.68c0-.2.1-.59.1-.89s-.1-.59-.3-.99c-.59-.69-1.58-.89-2.96-.89h-.99c-.3.1-.49.1-.79.1s-.59,0-.89-.1c-.59,0-1.18-.1-1.88-.2h-2.86c-.3,0-.59.1-.89.1-.49,0-.99-.1-1.58-.3-.89-.2-1.28-.59-1.28-1.18,0-.39.2-.79.49-1.38.2-.39.59-.69,1.18-.79.39-.1.79-.1,1.18-.1h1.58c.99,0,2.27-.2,3.55-.39.79-.1,1.68-.1,2.27-.1h.69c.49,0,1.09.1,1.68.1,1.58,0,3.45-.2,4.54-.99.99-.59,1.88-1.38,2.96-4.84.3-1.18,1.09-2.17,1.88-3.16.69-.89,1.38-1.48,1.78-2.57.39-.99,1.09-1.58,1.78-2.07.99-.59,2.57-1.09,3.75-1.09.3,0,.69,0,.89.1.79.39,1.28.89,1.28,1.88,0,.3,0,.59-.1.99-.2.89-.3,1.78-.89,2.47-.49.49-.79,1.09-.99,1.68-.2.49-.39.99-.49,1.48-.3.69-.49,1.18-.79,1.68-.2.59-.49,1.09-.49,1.78,0,1.78,1.88,2.76,3.26,2.76.69-.1,1.97-.2,3.26-.2.89-.1,1.78-.1,2.47-.1h.69c1.38.2,3.45.49,6.42.59h1.09c.79,0,1.28,0,1.68-.1h.69c.2,0,.49,0,.89.1.89.3,2.17.39,3.36.69,1.09.3,1.58.69,1.68,1.38Zm14.81,28.72c0,.1-.2.59-.39.99-.3.39-.59.69-.89,1.18-.39.69-.99,1.09-1.48,1.68-.99,1.18-1.58,1.97-2.47,2.57-.49.3-.79.69-1.09,1.09-.39.39-.69.79-1.18,1.18l-2.96,2.07c-.79.49-1.38.79-1.97.89l-3.06.99c-.59.1-1.09.2-1.68.2h-.59c-.59,0-1.09-.49-1.48-1.38-.39-.89-.69-1.97-.89-2.57-.49-.99-.59-2.66-.59-4.54-.1-2.27-.69-4.05-2.66-4.05-1.48.1-2.47.89-3.16,1.78-.69.79-1.18,1.68-1.78,2.27-.39.59-.99.99-1.38,1.58-1.18,1.18-1.38,2.47-1.38,4.05-.1.59-.1,1.09-.1,1.68-.1.69-.1,1.38-.69,1.48-.89.2-2.57.59-4.15.59-1.18,0-2.17-.2-2.66-.79-.2-.2-.39-.39-.49-.59l-.39-.39c.1-.3.3-.49.39-.59.69-.79,1.58-1.58,1.97-2.66.2-.89.79-1.48,1.18-2.17l.39-.79c.3-.99.89-1.18.99-2.37v-.49c0-1.09-.49-1.38-.89-1.38-.2,0-.39,0-.49.1-.39.1-.69.69-1.38,1.28-.3.3-.89.59-1.38.69-.69,0-1.18-.39-1.18-.79,0-.2,0-.3.2-.49l3.75-4.24c.49-.59.99-1.18,1.38-1.78l.99-1.18c.99-1.18,1.88-4.84,1.88-7.11,0-1.97.1-4.24.3-6.42.2-2.66.59-5.13,1.28-6.61.59-1.48.89-3.16,1.18-4.74.2-1.48.49-2.76.99-3.85.39-.59.59-.99.69-1.38l.2-.89c.1-.3.2-.79.99-2.07.79-1.28,1.48-2.86,2.37-4.44.79-1.58,1.68-3.06,2.57-4.15,2.17-2.37,5.43-5.23,7.5-5.43.39,0,.79-.1,1.18-.1,1.68,0,2.66.39,3.16.69.3.1.69.2,1.18.2l1.18.3c.79.2,1.28.59,1.38,1.48.2,1.18.59,2.57.69,4.15v.99c0,1.18-.1,2.57-.59,3.95l-2.27,5.23c-.99,2.07-2.07,4.05-3.06,5.63-.89,1.38-2.27,3.06-3.55,4.54l-3.16,3.55c-.79.89-1.38,2.07-1.88,3.06-.59,1.18-1.09,1.97-1.58,2.47-1.88,1.58-3.06,3.06-3.75,5.13-.49,1.09-.89,1.78-1.28,2.47-.49.79-.89,1.48-1.18,2.37-.1.49-.2,1.18-.2,1.68,0,.39.1.79.2,1.09.2.69.69.99,1.18.99.39,0,.79-.1,1.18-.39,1.48-1.09,2.57-1.58,3.45-1.78.99-.2,1.78-.3,2.66-.39,1.58,0,2.96.99,3.26,2.37.1.39.2.99.2,1.68.1.69.1,1.58.1,2.37l.2,2.76c0,.99.3,1.78.69,2.17.69.59,1.28.79,1.97.79.49,0,1.09-.1,1.58-.3,1.09-.39,1.97-.99,2.86-1.58.49-.3.99-.59,1.48-1.18.39-.39.89-.99,1.68-1.58l2.47-2.66c.59-.69,1.18-1.38,1.68-1.68.2-.1.39-.1.49-.1.3,0,.49.2.49.59,0,.3-.1.69-.39,1.09Zm-9.18-40.67c.3-.79.49-1.58.49-2.27,0-1.58-.79-2.86-1.97-3.75-.49-.39-.99-.59-1.48-.59-.39,0-.79.1-1.18.3-.79.39-1.58,1.09-2.27,1.58-1.88,1.38-3.45,3.85-4.05,6.22-.2.79-.49,1.48-.99,2.47-.49.89-1.18,1.97-1.78,3.26-.3.69-.49,1.48-.69,2.17l-.49,2.27c-.49,1.58-.89,3.26-1.48,4.94-.49,1.38-.59,2.86-.59,4.34,0,.39,0,.69.1.99.1.49.39,1.09,1.09,1.09.2,0,.39-.1.69-.2.89-.59,2.37-2.47,3.55-4.24,1.28-1.78,2.47-3.65,2.96-4.54.3-.3.59-.79.99-1.28,1.28-1.58,2.96-3.26,3.85-5.13.99-2.27,2.47-5.33,3.26-7.6Zm41.29-13.42c0,.59-.1,1.28-.69,1.97-1.09,1.18-2.07,2.37-3.16,3.06-.59.39-1.28.59-1.88.59-.39,0-.69-.1-.99-.2-.99-.39-1.38-.99-1.48-1.68-.1-.49-.2-.99-.2-1.48,0-.59,0-1.28-.1-1.97,0-1.28.49-2.37,1.28-3.16.59-.69,1.38-1.18,2.07-1.38.39-.1.69-.2.99-.2.69,0,1.28.39,2.27,1.38.89.99,1.68,1.97,1.88,3.06Zm-8.09,53.3c0,.3-.39,1.28-.99,2.17-.39.49-.69.79-.99,1.28-.39.39-.89.89-1.18,1.28-.2.3-.79.99-1.58,1.58-.79.79-1.58,1.78-1.97,2.17-1.18,1.18-2.27,1.97-3.55,2.76-.99.59-2.17.89-3.36,1.38l-.99.59c-.59.3-1.18.49-1.88.49h-.39c-1.09,0-2.17-.2-3.65-.3-1.18,0-1.97-.3-2.47-.79l-.49-.39c-.49-.49-.89-.79-1.68-1.09-.79-.3-1.88-1.48-2.07-4.84-.1-.89-.3-1.88-.3-2.76,0-.3.1-.59.1-.89.2-.79.59-1.68,1.58-2.57.89-.79,1.58-2.17,2.37-3.45.39-.79,1.18-2.27,1.88-2.86.69-.59,1.09-1.48,1.58-2.27.49-.69.99-1.18,1.78-1.28h.49c1.48,0,2.27.89,3.65,2.37.3.39.49.99.49,1.58,0,.99-.39,2.07-.99,3.36-.2.39-.49.79-.89,1.28-1.09,1.28-2.96,2.96-2.96,4.74v.39c.39,2.47,1.38,4.84,3.36,4.84s3.55-.49,6.02-1.97c.59-.3,1.58-.99,2.37-1.68.3-.39.69-.79,1.09-1.09l.59-.59c.2-.1.49-.49.79-.89l2.17-2.37.79-.69c.2-.2.39-.39.79-.39.49,0,.49.59.49.89Zm46.02,1.38l-.69.99c-.3.39-.59.69-.89,1.18-.3.3-.69.89-1.18,1.28-.49.39-1.09,1.09-1.58,1.58-1.38,1.58-2.66,2.76-4.24,4.05-1.48,1.38-2.57,2.27-3.55,2.76-.69.3-1.38.49-2.17.49-.59,0-1.28-.1-1.97-.3-1.18-.3-2.27-1.18-2.66-2.17-.69-1.48-1.28-2.47-1.78-3.16-.39-.59-.79-1.18-.99-1.97-.39-1.28-1.38-2.86-2.66-2.86-.39,0-.89.2-1.38.59-.49.3-.99.49-1.38.89-.79.59-1.88,1.68-3.16,3.85-.79,1.28-1.38,1.88-1.88,2.37-.39.2-.69.49-1.09.79l-1.28,1.38c-.2.3-.59.39-1.28.49-.79,0-1.68-.1-2.47-.1l-1.97-.2c-.69,0-1.09-.1-1.38-.3-.39-.2-.79-.89-.79-1.88,0-.3,0-.49.1-.79.2-.79.3-1.48.3-2.07,0-.39-.1-.69-.1-.99-.1-.39-.1-.89-.1-1.28v-.49c.2-.89.3-1.68.3-2.37,0-1.28-.39-2.27-1.38-2.76-.3-.1-.49-.2-.69-.2-.69,0-1.48.49-2.17,1.18-.49.49-.89.99-1.28,1.58-.59.59-.59.79-1.38,1.28-.49.3-.99.49-1.38.49-.69,0-1.09-.39-1.09-.69.1-.39.2-.39.69-.89l1.48-1.58c.1-.3.3-.49,1.09-1.38.39-.49.59-.89.79-1.18.2-.39.39-.69.79-1.18.49-.59.59-1.09.89-1.68.3-.59.59-.89.79-1.09.79-.59,1.28-1.38,1.68-2.07.39-.69.79-1.28,1.38-1.78.79-.69,1.48-1.09,2.27-1.09.2,0,.49,0,.69.1,1.68.39,2.37.89,2.76,1.48.39.69.69,1.78.69,2.66.2,1.78.39,2.47.59,2.96l.2.79c.1.3.1.69.1,1.28,0,1.48.59,3.06,1.48,3.85.3.3.69.49,1.09.49.69,0,1.28-.39,1.88-.69.3-.2.59-.39.89-.49,1.28-.79,2.86-2.17,3.55-3.16,1.28-1.88,1.68-2.27,1.97-2.47.2-.1.39-.2.59-.39.3-.2.49-.49.89-.99,1.28-1.48,2.47-2.17,3.36-2.66.49-.2.99-.39,1.38-.39.79,0,1.58.39,2.07,1.09.3.39.69.99.99,1.88.2.59.39,1.09.39,1.88,0,.69-.2,1.58-.59,2.76-.49,1.38-.69,2.27-.69,3.06,0,.69.2,1.18.39,1.78,0,.3.1.59.1.89.1.39.2.79.39,1.18.39.79,1.18,1.18,2.37,1.18h.59c1.38-.1,2.86-1.28,4.15-2.27l2.66-2.57c.49-.39.89-.89,1.18-1.28l1.58-1.68c.69-.69,1.18-1.28,1.58-1.28s.69.1.69.59c0,.3-.1.89-.49,1.68Zm36.98-1.58c0,.49-.2,1.09-.79,2.07-.2.2-.79.99-.99,1.38l-4.94,5.03c-1.28,1.38-2.66,2.57-3.16,3.16-.2.39-.49.69-.89,1.09-.49.39-.89.89-1.28,1.28-.99.99-1.88,1.68-2.47,1.78-.69.2-1.38.39-2.07.39s-1.38-.2-2.37-1.09c-1.09-.89-1.48-1.28-1.97-1.58-.39-.2-.79-.3-1.68-.89-.79-.49-1.48-.79-2.07-1.09-.49-.3-.99-.69-1.58-1.18-.3-.3-.49-.59-.79-.79-.69-.79-1.38-1.48-2.57-1.48s-2.76,1.68-3.65,2.57l-.99.89c-.69.49-1.28,1.28-1.97,1.88-.59.59-1.18.99-1.88.99-.49,0-.79.1-1.09.1-.89,0-1.09-.3-1.28-1.28,0-.3,0-.79.2-1.38.1-.59.2-1.28.39-1.97,0-.3.79-1.18.89-1.38.99-1.28,1.68-2.47,1.78-3.26,0-.69-.1-1.38-.89-1.38-.1,0-.89.49-1.28.89-.49.3-.89.49-1.48.49h-.39c-.39-.1-.49-.49-.49-.49,0-.79.3-1.09.89-1.68l.79-.99c.3-.2.49-.49.79-.79l2.27-2.47c1.18-1.28,1.68-3.16,1.97-4.84.2-1.58.2-3.16.39-4.24.39-2.27,1.09-5.33,1.88-6.51.79-1.38,1.58-4.64,1.88-6.22.39-1.78,1.18-4.34,1.88-6.71.3-.99.69-1.88,1.09-2.57.3-.79.69-1.68.69-2.37.3-2.57,3.45-7.8,4.54-9.28,2.37-3.06,4.64-5.43,6.42-6.02,1.28-.39,2.57-.59,4.34-.59.39,0,2.07,1.18,3.06,3.65l1.18,2.86,1.28,2.66c.2.1.2.59.2,1.28l-.3,2.27c0,.69.2,1.58.2,2.76-.1.99-.3,2.17-1.28,3.55-.79,1.28-1.88,2.76-2.96,4.15-1.48,1.88-3.16,3.55-4.54,4.54l-3.45,2.66c-.99.79-1.88,1.58-2.37,2.37-.2.2-.39.39-.89.59-.49.3-1.09.49-1.68.79-1.28.59-2.76,1.28-3.85,2.76-.79,1.18-1.28,2.66-1.48,4.15-.2,1.28-.3,2.66-.3,3.85,0,.79,0,1.48.1,1.97.1.99.79,1.38,1.68,1.38.49,0,.99-.1,1.48-.3,1.09-.39,2.27-1.28,2.76-1.68l2.47-2.96c.99-1.28,1.97-2.47,2.66-3.06,1.58-1.09,4.74-2.66,6.02-3.16.49-.1.89-.2,1.18-.2.49,0,.79.2.99.49.2.3.39,1.09.39,1.97,0,.79-.2,1.58-.49,2.17-.39.59-1.18,1.38-2.17,2.27-.89.89-1.97,1.68-2.57,2.37-1.28,1.18-3.65,3.16-4.94,4.05-.59.39-1.58.99-2.27,1.58-.99.79-1.68,1.68-1.68,2.27,0,1.48,1.68,3.16,3.55,4.24.39.3.79.49,1.18.59.3.2.69.3.89.49.59.2.89.39,1.18.59.3.39.89.59,1.48.59,1.09,0,2.47-.59,3.65-1.18l3.16-2.17c.89-.59,1.48-1.28,2.47-2.17.39-.3,1.28-1.28,2.27-2.37l1.97-2.07c.49-.49.79-.79,1.09-.79.39,0,.59.39.59.69Zm-10.17-36.22c.2-.39.2-.89.2-1.38,0-1.09-.3-2.27-.39-2.76-.39-1.38-2.17-4.74-3.36-4.74-1.48,0-2.66,1.58-3.65,2.57l-1.09.99c-1.28.99-2.27,4.54-3.26,6.22-.49.79-.79,2.17-.99,3.55-.2,1.09-.49,2.17-.79,3.16-.39,1.09-.69,2.27-.69,3.36,0,1.48.39,2.66,1.58,2.76.79,0,1.38-.39,2.07-.59.69-.2,1.58-.89,2.47-1.68.99-.89,2.07-2.07,2.76-3.06.49-.79,1.18-1.48,1.78-2.17.69-.79,1.38-1.68,1.88-2.96.39-1.09.99-2.27,1.48-3.26Zm41.86-16.88c0,.59-.1,1.28-.69,1.97-1.09,1.18-2.07,2.37-3.16,3.06-.59.39-1.28.59-1.88.59-.39,0-.69-.1-.99-.2-.99-.39-1.38-.99-1.48-1.68-.1-.49-.2-.99-.2-1.48,0-.59,0-1.28-.1-1.97,0-1.28.49-2.37,1.28-3.16.59-.69,1.38-1.18,2.07-1.38.39-.1.69-.2.99-.2.69,0,1.28.39,2.27,1.38.89.99,1.68,1.97,1.88,3.06Zm-8.09,53.3c0,.3-.39,1.28-.99,2.17-.39.49-.69.79-.99,1.28-.39.39-.89.89-1.18,1.28-.2.3-.79.99-1.58,1.58-.79.79-1.58,1.78-1.97,2.17-1.18,1.18-2.27,1.97-3.55,2.76-.99.59-2.17.89-3.36,1.38l-.99.59c-.59.3-1.18.49-1.88.49h-.39c-1.09,0-2.17-.2-3.65-.3-1.18,0-1.97-.3-2.47-.79l-.49-.39c-.49-.49-.89-.79-1.68-1.09-.79-.3-1.88-1.48-2.07-4.84-.1-.89-.3-1.88-.3-2.76,0-.3.1-.59.1-.89.2-.79.59-1.68,1.58-2.57.89-.79,1.58-2.17,2.37-3.45.39-.79,1.18-2.27,1.88-2.86.69-.59,1.09-1.48,1.58-2.27.49-.69.99-1.18,1.78-1.28h.49c1.48,0,2.27.89,3.65,2.37.3.39.49.99.49,1.58,0,.99-.39,2.07-.99,3.36-.2.39-.49.79-.89,1.28-1.09,1.28-2.96,2.96-2.96,4.74v.39c.39,2.47,1.38,4.84,3.36,4.84s3.55-.49,6.02-1.97c.59-.3,1.58-.99,2.37-1.68.3-.39.69-.79,1.09-1.09l.59-.59c.2-.1.49-.49.79-.89l2.17-2.37.79-.69c.2-.2.39-.39.79-.39.49,0,.49.59.49.89Zm46.02,1.38l-.69.99c-.3.39-.59.69-.89,1.18-.3.3-.69.89-1.18,1.28-.49.39-1.09,1.09-1.58,1.58-1.38,1.58-2.66,2.76-4.24,4.05-1.48,1.38-2.57,2.27-3.55,2.76-.69.3-1.38.49-2.17.49-.59,0-1.28-.1-1.97-.3-1.18-.3-2.27-1.18-2.66-2.17-.69-1.48-1.28-2.47-1.78-3.16-.39-.59-.79-1.18-.99-1.97-.39-1.28-1.38-2.86-2.66-2.86-.39,0-.89.2-1.38.59-.49.3-.99.49-1.38.89-.79.59-1.88,1.68-3.16,3.85-.79,1.28-1.38,1.88-1.88,2.37-.39.2-.69.49-1.09.79l-1.28,1.38c-.2.3-.59.39-1.28.49-.79,0-1.68-.1-2.47-.1l-1.97-.2c-.69,0-1.09-.1-1.38-.3-.39-.2-.79-.89-.79-1.88,0-.3,0-.49.1-.79.2-.79.3-1.48.3-2.07,0-.39-.1-.69-.1-.99-.1-.39-.1-.89-.1-1.28v-.49c.2-.89.3-1.68.3-2.37,0-1.28-.39-2.27-1.38-2.76-.3-.1-.49-.2-.69-.2-.69,0-1.48.49-2.17,1.18-.49.49-.89.99-1.28,1.58-.59.59-.59.79-1.38,1.28-.49.3-.99.49-1.38.49-.69,0-1.09-.39-1.09-.69.1-.39.2-.39.69-.89l1.48-1.58c.1-.3.3-.49,1.09-1.38.39-.49.59-.89.79-1.18.2-.39.39-.69.79-1.18.49-.59.59-1.09.89-1.68.3-.59.59-.89.79-1.09.79-.59,1.28-1.38,1.68-2.07.39-.69.79-1.28,1.38-1.78.79-.69,1.48-1.09,2.27-1.09.2,0,.49,0,.69.1,1.68.39,2.37.89,2.76,1.48.39.69.69,1.78.69,2.66.2,1.78.39,2.47.59,2.96l.2.79c.1.3.1.69.1,1.28,0,1.48.59,3.06,1.48,3.85.3.3.69.49,1.09.49.69,0,1.28-.39,1.88-.69.3-.2.59-.39.89-.49,1.28-.79,2.86-2.17,3.55-3.16,1.28-1.88,1.68-2.27,1.97-2.47.2-.1.39-.2.59-.39.3-.2.49-.49.89-.99,1.28-1.48,2.47-2.17,3.36-2.66.49-.2.99-.39,1.38-.39.79,0,1.58.39,2.07,1.09.3.39.69.99.99,1.88.2.59.39,1.09.39,1.88,0,.69-.2,1.58-.59,2.76-.49,1.38-.69,2.27-.69,3.06,0,.69.2,1.18.39,1.78,0,.3.1.59.1.89.1.39.2.79.39,1.18.39.79,1.18,1.18,2.37,1.18h.59c1.38-.1,2.86-1.28,4.15-2.27l2.66-2.57c.49-.39.89-.89,1.18-1.28l1.58-1.68c.69-.69,1.18-1.28,1.58-1.28s.69.1.69.59c0,.3-.1.89-.49,1.68Zm33.53-1.78c0,.49-.1.99-.59,1.78-.1.3-.49.89-.99,1.48,0,.1-.1.2-.3.39l-1.38,1.58c-.39.59-.89.99-1.48,1.48l-.59.69c-.69.79-1.18,1.18-1.68,1.58-.49.49-1.09.79-1.68,1.18-1.18.89-2.27,1.78-4.05,3.36-.79.79-1.18.99-1.68,1.48-.59.49-1.18,1.18-2.47,2.76l-.69.79c-.3.2-.69.59-.99.99-.69.69-1.28,1.78-1.48,3.45-.3,2.27-1.38,5.23-1.68,7.6-.3,2.27-1.58,6.61-1.97,10.17-.2,1.68-.3,4.54-.69,7.4-.3,2.66-.79,5.03-1.68,6.12-1.18,1.38-1.97,2.57-2.66,3.65-.69.99-1.09,1.48-1.48,1.68-.59.3-1.68.89-2.86,1.38-1.09.39-2.07.79-2.96.79-1.28-.1-2.76-.1-4.15-.1-1.38-.1-2.66-.1-3.45-.3-1.68-.3-2.66-2.27-4.44-2.47-.89-.1-3.75-2.66-3.75-6.42,0-.39,0-.79.1-1.18.39-2.27.99-3.55,1.58-4.64l.89-1.68c.3-.59.49-1.18.69-1.97.69-2.66,3.06-5.53,4.44-6.91,2.07-1.88,4.15-3.75,6.02-5.92.99-1.18,2.17-2.66,3.36-3.95,1.09-1.38,2.07-2.47,2.66-3.06,1.68-1.58,3.16-2.86,4.64-4.15.69-.59,1.68-1.18,2.17-2.07.59-1.09.59-3.16.59-4.34,0-.79-.3-1.88-1.18-1.88-.3,0-.79.1-1.28.49-.39.3-.99.49-1.68.49-.59,0-1.38-.1-2.37-.39-.59-.2-1.09-.3-1.38-.3l-.89-.3c-.3-.2-.69-.39-1.28-1.28-.99-1.28-1.78-2.86-1.78-4.54,0-.39.1-.89.2-1.28.3-1.18.39-2.17.69-3.16.2-.99.59-2.07,1.48-3.26.89-1.28,1.88-2.07,2.86-2.86,1.09-.79,2.17-1.38,3.16-2.17,1.88-1.58,5.03-3.65,7.6-3.65s4.64,1.09,5.33,2.27c.49.79.99,1.28,1.68,1.88.49.39.79.69,1.09,1.38.39.69.59,1.78.59,2.86,0,.79-.1,1.58-.39,2.17-.49,1.18-.89,3.06-1.18,4.54-.1.89-1.48,3.75-1.68,4.05-.49.89-.79,1.58-.79,1.97,0,.49.3.69.79.69.39,0,1.09-.2,1.68-.3,1.09-.39,3.06-1.88,3.75-2.37l1.18-.89c.59-.39,1.18-.79,1.68-1.28.3-.39.69-.69,1.18-1.09.49-.39.89-.89,1.38-1.38l1.48-1.68c.2-.3.79-.89,1.18-1.18.3-.3.59-.59.89-.69.49,0,.69.2.69.49Zm-18.85-.39c.1-.39.1-.79.1-1.18,0-1.97-1.09-3.26-2.37-3.95-.79-.39-1.48-.49-2.17-.49-.39,0-.79,0-1.18.1l-2.37.79c-1.78.59-2.17,2.37-2.47,4.74-.1.79-.2,1.09-.2,1.48v.39c0,.39.1.99.2,1.78.2,1.38.69,1.97,1.58,2.37.3.2.59.2.99.39.39.1.69.2.99.39.69.3,1.28.59,1.88.59.49,0,.89-.2,1.38-.49l.69-.49c1.09-.99,2.66-4.15,2.96-6.42Zm-7.7,29.22c.1-.39.1-.79.1-1.09,0-1.38-.49-2.27-1.18-2.27s-1.58.59-2.47,1.48l-3.26,3.65c-.79,1.09-1.97,2.76-3.06,3.26-.99.49-1.68,1.38-2.17,2.37l-.89,1.38c-.39.49-.69,1.09-1.18,1.58-.79.89-1.28,1.58-1.78,2.37l-1.68,2.86c-1.09,1.88-2.17,4.24-2.17,6.32,0,.69.1,1.18.39,1.78.89,1.97,1.28,4.05,3.85,4.24h.99c1.68,0,3.16-.39,4.54-.89,1.78-.69,3.65-3.16,4.74-4.84.99-1.48,1.09-3.36,1.48-4.94.1-.49.2-.99.39-1.48.49-1.09.59-1.88.59-2.66.1-.79.1-1.68.39-2.96l.49-3.36c.1-1.18.39-2.37.79-3.26.3-.69.79-2.27,1.09-3.55Zm-224.5,58.63v-4.35h3.06v22.3h-3.06v-4.63c-1.62,3.06-5.06,5.21-9.03,5.21-6.07,0-11.18-5.11-11.18-11.75s4.92-11.7,11.27-11.7c3.82,0,7.26,1.86,8.93,4.92Zm-8.64,15.62c4.63,0,8.64-3.73,8.64-8.74s-4.2-8.88-8.69-8.88-8.5,4.01-8.5,8.79,3.82,8.84,8.55,8.84Zm31.29-20.54c6.26,0,11.32,4.92,11.32,11.7s-5.06,11.75-11.32,11.75c-3.73,0-7.26-1.91-8.88-4.97v4.39h-3.06v-34.43h3.06v16.48c1.67-3.06,5.11-4.92,8.88-4.92Zm-.24,20.54c4.73,0,8.55-3.92,8.55-8.88s-3.82-8.74-8.55-8.74c-4.44,0-8.64,3.49-8.64,8.88s4.01,8.74,8.64,8.74Zm27.81,2.91c-6.35,0-11.65-4.68-11.65-11.75s5.3-11.7,11.65-11.7,11.7,4.63,11.7,11.7-5.35,11.75-11.7,11.75Zm0-2.91c4.68,0,8.64-3.58,8.64-8.84s-3.96-8.79-8.64-8.79-8.6,3.53-8.6,8.79,3.87,8.84,8.6,8.84Zm34.24-7.5v-12.47h3.06v22.3h-3.06v-3.92c-1.34,3.15-4.97,4.49-7.74,4.49-5.4,0-9.07-3.73-9.03-9.89v-12.99h3.06v12.94c0,4.3,2.67,7.02,6.3,7.02s7.35-2.1,7.4-7.5Zm15.25-12.47h5.11v2.63h-5.11v19.68h-3.01v-19.68h-4.06v-2.63h4.06v-8.36h3.01v8.36Zm79.09-17.02c0,.81-.81,1.41-2.12,1.61h-.4c-1.11,0-2.82-.3-5.34-.3-.6,0-1.31.1-2.02.1-1.21.1-1.81.2-2.52.2-.5,0-1.01-.1-1.81-.1-.3,0-.6-.1-.91-.1s-.71.1-1.11.1c-.71,0-1.51.1-2.62.2h-2.12c-.71,0-1.51,0-2.12-.1-1.21-.1-2.32-.2-3.33-.2-2.02,0-3.43.4-4.13,1.51l-1.11,1.71c-.4.6-.71,1.31-1.11,2.42-.81,2.12-.91,2.62-2.32,4.64-1.01,1.21-.91,3.13-1.81,4.44-.71,1.11-.91,2.52-1.31,3.73-.71,2.62-1.51,5.24-1.71,8.07-.1.91-.1,1.92-.1,2.82v1.11c0,1.21.2,2.42,1.01,3.23,1.21,1.21,2.82,1.41,3.33,1.51.91.1,1.51.2,2.02.2.3,0,.6-.1.81-.1l1.11-.4c.3-.2.81-.4,1.51-.71,1.01-.5,1.71-1.11,2.32-1.71l1.51-1.41c.71-.81.91-.91,1.51-1.51.1-.2.4-.5.81-.91l1.71-1.81c.3-.4.71-.6,1.01-.6.1,0,.2,0,.3.1.2.2.2.4.2.6,0,.6-.4,1.51-.81,2.12-.4.4-.71.91-.91,1.11-.1.2-.3.5-.81,1.01l-2.12,2.42c-.91.81-1.61,1.71-2.42,2.42l-1.31,1.11c-.6.5-1.01.71-1.71.91l-.91.3c-.71.3-1.61.81-2.92,1.92-.81.71-2.52,1.21-4.84,1.21h-.71c-.81,0-1.51-.1-2.12-.1h-2.22c-.4,0-.5-.1-.81-.2l-.81-.6-1.51-.71c-.81-.3-1.41-1.11-1.41-2.12v-1.01c0-1.01-.1-1.71-.2-2.32-.1-.4-.2-.81-.2-1.21v-.5c.2-.91.2-1.92.4-2.82.2-.91.4-1.51.71-1.92,1.21-1.31,2.32-3.43,2.72-5.24.2-.71.4-1.21.6-1.61.3-.6.6-1.11.81-1.81l.5-2.32c.3-.91.6-1.81,1.01-2.62.6-1.11.91-2.22,1.01-3.13l.2-1.11c0-.4.1-.6.1-.71.4-1.01.6-1.92.71-2.62.1-.6.2-1.31.4-1.81l.71-1.71c0-.2.1-.6.1-.91s-.1-.6-.3-1.01c-.6-.71-1.61-.91-3.02-.91h-1.01c-.3.1-.5.1-.81.1s-.6,0-.91-.1c-.6,0-1.21-.1-1.92-.2h-2.92c-.3,0-.6.1-.91.1-.5,0-1.01-.1-1.61-.3-.91-.2-1.31-.6-1.31-1.21,0-.4.2-.81.5-1.41.2-.4.6-.71,1.21-.81.4-.1.81-.1,1.21-.1h1.61c1.01,0,2.32-.2,3.63-.4.81-.1,1.71-.1,2.32-.1h.71c.5,0,1.11.1,1.71.1,1.61,0,3.53-.2,4.64-1.01,1.01-.6,1.92-1.41,3.02-4.94.3-1.21,1.11-2.22,1.92-3.23.71-.91,1.41-1.51,1.81-2.62.4-1.01,1.11-1.61,1.81-2.12,1.01-.6,2.62-1.11,3.83-1.11.3,0,.71,0,.91.1.81.4,1.31.91,1.31,1.92,0,.3,0,.6-.1,1.01-.2.91-.3,1.81-.91,2.52-.5.5-.81,1.11-1.01,1.71-.2.5-.4,1.01-.5,1.51-.3.71-.5,1.21-.81,1.71-.2.6-.5,1.11-.5,1.81,0,1.81,1.92,2.82,3.33,2.82.71-.1,2.02-.2,3.33-.2.91-.1,1.81-.1,2.52-.1h.71c1.41.2,3.53.5,6.55.6h1.11c.81,0,1.31,0,1.71-.1h.71c.2,0,.5,0,.91.1.91.3,2.22.4,3.43.71,1.11.3,1.61.71,1.71,1.41Zm15.13,29.34c0,.1-.2.6-.4,1.01-.3.4-.6.71-.91,1.21-.4.71-1.01,1.11-1.51,1.71-1.01,1.21-1.61,2.02-2.52,2.62-.5.3-.81.71-1.11,1.11-.4.4-.71.81-1.21,1.21l-3.02,2.12c-.81.5-1.41.81-2.02.91l-3.13,1.01c-.6.1-1.11.2-1.71.2h-.6c-.6,0-1.11-.5-1.51-1.41-.4-.91-.71-2.02-.91-2.62-.5-1.01-.6-2.72-.6-4.64-.1-2.32-.71-4.13-2.72-4.13-1.51.1-2.52.91-3.23,1.81-.71.81-1.21,1.71-1.81,2.32-.4.6-1.01,1.01-1.41,1.61-1.21,1.21-1.41,2.52-1.41,4.13-.1.6-.1,1.11-.1,1.71-.1.71-.1,1.41-.71,1.51-.91.2-2.62.6-4.23.6-1.21,0-2.22-.2-2.72-.81-.2-.2-.4-.4-.5-.6l-.4-.4c.1-.3.3-.5.4-.6.71-.81,1.61-1.61,2.02-2.72.2-.91.81-1.51,1.21-2.22l.4-.81c.3-1.01.91-1.21,1.01-2.42v-.5c0-1.11-.5-1.41-.91-1.41-.2,0-.4,0-.5.1-.4.1-.71.71-1.41,1.31-.3.3-.91.6-1.41.71-.71,0-1.21-.4-1.21-.81,0-.2,0-.3.2-.5l3.83-4.34c.5-.6,1.01-1.21,1.41-1.81l1.01-1.21c1.01-1.21,1.92-4.94,1.92-7.26,0-2.02.1-4.34.3-6.55.2-2.72.6-5.24,1.31-6.76.6-1.51.91-3.23,1.21-4.84.2-1.51.5-2.82,1.01-3.93.4-.6.6-1.01.71-1.41l.2-.91c.1-.3.2-.81,1.01-2.12.81-1.31,1.51-2.92,2.42-4.54.81-1.61,1.71-3.13,2.62-4.23,2.22-2.42,5.55-5.34,7.66-5.55.4,0,.81-.1,1.21-.1,1.71,0,2.72.4,3.23.71.3.1.71.2,1.21.2l1.21.3c.81.2,1.31.6,1.41,1.51.2,1.21.6,2.62.71,4.23v1.01c0,1.21-.1,2.62-.6,4.03l-2.32,5.34c-1.01,2.12-2.12,4.13-3.13,5.75-.91,1.41-2.32,3.13-3.63,4.64l-3.23,3.63c-.81.91-1.41,2.12-1.92,3.13-.6,1.21-1.11,2.02-1.61,2.52-1.92,1.61-3.13,3.13-3.83,5.24-.5,1.11-.91,1.81-1.31,2.52-.5.81-.91,1.51-1.21,2.42-.1.5-.2,1.21-.2,1.71,0,.4.1.81.2,1.11.2.71.71,1.01,1.21,1.01.4,0,.81-.1,1.21-.4,1.51-1.11,2.62-1.61,3.53-1.81,1.01-.2,1.81-.3,2.72-.4,1.61,0,3.02,1.01,3.33,2.42.1.4.2,1.01.2,1.71.1.71.1,1.61.1,2.42l.2,2.82c0,1.01.3,1.81.71,2.22.71.6,1.31.81,2.02.81.5,0,1.11-.1,1.61-.3,1.11-.4,2.02-1.01,2.92-1.61.5-.3,1.01-.6,1.51-1.21.4-.4.91-1.01,1.71-1.61l2.52-2.72c.6-.71,1.21-1.41,1.71-1.71.2-.1.4-.1.5-.1.3,0,.5.2.5.6,0,.3-.1.71-.4,1.11Zm-9.38-41.54c.3-.81.5-1.61.5-2.32,0-1.61-.81-2.92-2.02-3.83-.5-.4-1.01-.6-1.51-.6-.4,0-.81.1-1.21.3-.81.4-1.61,1.11-2.32,1.61-1.92,1.41-3.53,3.93-4.13,6.35-.2.81-.5,1.51-1.01,2.52-.5.91-1.21,2.02-1.81,3.33-.3.71-.5,1.51-.71,2.22l-.5,2.32c-.5,1.61-.91,3.33-1.51,5.04-.5,1.41-.6,2.92-.6,4.44,0,.4,0,.71.1,1.01.1.5.4,1.11,1.11,1.11.2,0,.4-.1.71-.2.91-.6,2.42-2.52,3.63-4.34,1.31-1.81,2.52-3.73,3.02-4.64.3-.3.6-.81,1.01-1.31,1.31-1.61,3.02-3.33,3.93-5.24,1.01-2.32,2.52-5.44,3.33-7.76Zm42.18-13.71c0,.6-.1,1.31-.71,2.02-1.11,1.21-2.12,2.42-3.23,3.13-.6.4-1.31.6-1.92.6-.4,0-.71-.1-1.01-.2-1.01-.4-1.41-1.01-1.51-1.71-.1-.5-.2-1.01-.2-1.51,0-.6,0-1.31-.1-2.02,0-1.31.5-2.42,1.31-3.23.6-.71,1.41-1.21,2.12-1.41.4-.1.71-.2,1.01-.2.71,0,1.31.4,2.32,1.41.91,1.01,1.71,2.02,1.92,3.13Zm-8.27,54.45c0,.3-.4,1.31-1.01,2.22-.4.5-.71.81-1.01,1.31-.4.4-.91.91-1.21,1.31-.2.3-.81,1.01-1.61,1.61-.81.81-1.61,1.81-2.02,2.22-1.21,1.21-2.32,2.02-3.63,2.82-1.01.6-2.22.91-3.43,1.41l-1.01.6c-.6.3-1.21.5-1.92.5h-.4c-1.11,0-2.22-.2-3.73-.3-1.21,0-2.02-.3-2.52-.81l-.5-.4c-.5-.5-.91-.81-1.71-1.11-.81-.3-1.92-1.51-2.12-4.94-.1-.91-.3-1.92-.3-2.82,0-.3.1-.6.1-.91.2-.81.6-1.71,1.61-2.62.91-.81,1.61-2.22,2.42-3.53.4-.81,1.21-2.32,1.92-2.92.71-.6,1.11-1.51,1.61-2.32.5-.71,1.01-1.21,1.81-1.31h.5c1.51,0,2.32.91,3.73,2.42.3.4.5,1.01.5,1.61,0,1.01-.4,2.12-1.01,3.43-.2.4-.5.81-.91,1.31-1.11,1.31-3.02,3.02-3.02,4.84v.4c.4,2.52,1.41,4.94,3.43,4.94s3.63-.5,6.15-2.02c.6-.3,1.61-1.01,2.42-1.71.3-.4.71-.81,1.11-1.11l.6-.6c.2-.1.5-.5.81-.91l2.22-2.42.81-.71c.2-.2.4-.4.81-.4.5,0,.5.6.5.91Zm47.01,1.41l-.71,1.01c-.3.4-.6.71-.91,1.21-.3.3-.71.91-1.21,1.31-.5.4-1.11,1.11-1.61,1.61-1.41,1.61-2.72,2.82-4.34,4.13-1.51,1.41-2.62,2.32-3.63,2.82-.71.3-1.41.5-2.22.5-.6,0-1.31-.1-2.02-.3-1.21-.3-2.32-1.21-2.72-2.22-.71-1.51-1.31-2.52-1.81-3.23-.4-.6-.81-1.21-1.01-2.02-.4-1.31-1.41-2.92-2.72-2.92-.4,0-.91.2-1.41.6-.5.3-1.01.5-1.41.91-.81.6-1.92,1.71-3.23,3.93-.81,1.31-1.41,1.92-1.92,2.42-.4.2-.71.5-1.11.81l-1.31,1.41c-.2.3-.6.4-1.31.5-.81,0-1.71-.1-2.52-.1l-2.02-.2c-.71,0-1.11-.1-1.41-.3-.4-.2-.81-.91-.81-1.92,0-.3,0-.5.1-.81.2-.81.3-1.51.3-2.12,0-.4-.1-.71-.1-1.01-.1-.4-.1-.91-.1-1.31v-.5c.2-.91.3-1.71.3-2.42,0-1.31-.4-2.32-1.41-2.82-.3-.1-.5-.2-.71-.2-.71,0-1.51.5-2.22,1.21-.5.5-.91,1.01-1.31,1.61-.6.6-.6.81-1.41,1.31-.5.3-1.01.5-1.41.5-.71,0-1.11-.4-1.11-.71.1-.4.2-.4.71-.91l1.51-1.61c.1-.3.3-.5,1.11-1.41.4-.5.6-.91.81-1.21.2-.4.4-.71.81-1.21.5-.6.6-1.11.91-1.71.3-.6.6-.91.81-1.11.81-.6,1.31-1.41,1.71-2.12.4-.71.81-1.31,1.41-1.81.81-.71,1.51-1.11,2.32-1.11.2,0,.5,0,.71.1,1.71.4,2.42.91,2.82,1.51.4.71.71,1.81.71,2.72.2,1.81.4,2.52.6,3.02l.2.81c.1.3.1.71.1,1.31,0,1.51.6,3.13,1.51,3.93.3.3.71.5,1.11.5.71,0,1.31-.4,1.92-.71.3-.2.6-.4.91-.5,1.31-.81,2.92-2.22,3.63-3.23,1.31-1.92,1.71-2.32,2.02-2.52.2-.1.4-.2.6-.4.3-.2.5-.5.91-1.01,1.31-1.51,2.52-2.22,3.43-2.72.5-.2,1.01-.4,1.41-.4.81,0,1.61.4,2.12,1.11.3.4.71,1.01,1.01,1.92.2.6.4,1.11.4,1.92,0,.71-.2,1.61-.6,2.82-.5,1.41-.71,2.32-.71,3.13,0,.71.2,1.21.4,1.81,0,.3.1.6.1.91.1.4.2.81.4,1.21.4.81,1.21,1.21,2.42,1.21h.6c1.41-.1,2.92-1.31,4.23-2.32l2.72-2.62c.5-.4.91-.91,1.21-1.31l1.61-1.71c.71-.71,1.21-1.31,1.61-1.31s.71.1.71.6c0,.3-.1.91-.5,1.71Zm34.25-1.81c0,.5-.1,1.01-.6,1.81-.1.3-.5.91-1.01,1.51,0,.1-.1.2-.3.4l-1.41,1.61c-.4.6-.91,1.01-1.51,1.51l-.6.71c-.71.81-1.21,1.21-1.71,1.61-.5.5-1.11.81-1.71,1.21-1.21.91-2.32,1.81-4.13,3.43-.81.81-1.21,1.01-1.71,1.51-.6.5-1.21,1.21-2.52,2.82l-.71.81c-.3.2-.71.6-1.01,1.01-.71.71-1.31,1.81-1.51,3.53-.3,2.32-1.41,5.34-1.71,7.76-.3,2.32-1.61,6.76-2.02,10.39-.2,1.71-.3,4.64-.71,7.56-.3,2.72-.81,5.14-1.71,6.25-1.21,1.41-2.02,2.62-2.72,3.73-.71,1.01-1.11,1.51-1.51,1.71-.6.3-1.71.91-2.92,1.41-1.11.4-2.12.81-3.02.81-1.31-.1-2.82-.1-4.23-.1-1.41-.1-2.72-.1-3.53-.3-1.71-.3-2.72-2.32-4.54-2.52-.91-.1-3.83-2.72-3.83-6.55,0-.4,0-.81.1-1.21.4-2.32,1.01-3.63,1.61-4.74l.91-1.71c.3-.6.5-1.21.71-2.02.71-2.72,3.13-5.65,4.54-7.06,2.12-1.92,4.23-3.83,6.15-6.05,1.01-1.21,2.22-2.72,3.43-4.03,1.11-1.41,2.12-2.52,2.72-3.13,1.71-1.61,3.23-2.92,4.74-4.23.71-.6,1.71-1.21,2.22-2.12.6-1.11.6-3.23.6-4.44,0-.81-.3-1.92-1.21-1.92-.3,0-.81.1-1.31.5-.4.3-1.01.5-1.71.5-.6,0-1.41-.1-2.42-.4-.6-.2-1.11-.3-1.41-.3l-.91-.3c-.3-.2-.71-.4-1.31-1.31-1.01-1.31-1.81-2.92-1.81-4.64,0-.4.1-.91.2-1.31.3-1.21.4-2.22.71-3.23.2-1.01.6-2.12,1.51-3.33.91-1.31,1.92-2.12,2.92-2.92,1.11-.81,2.22-1.41,3.23-2.22,1.92-1.61,5.14-3.73,7.76-3.73s4.74,1.11,5.44,2.32c.5.81,1.01,1.31,1.71,1.92.5.4.81.71,1.11,1.41.4.71.6,1.81.6,2.92,0,.81-.1,1.61-.4,2.22-.5,1.21-.91,3.13-1.21,4.64-.1.91-1.51,3.83-1.71,4.13-.5.91-.81,1.61-.81,2.02,0,.5.3.71.81.71.4,0,1.11-.2,1.71-.3,1.11-.4,3.13-1.92,3.83-2.42l1.21-.91c.6-.4,1.21-.81,1.71-1.31.3-.4.71-.71,1.21-1.11.5-.4.91-.91,1.41-1.41l1.51-1.71c.2-.3.81-.91,1.21-1.21.3-.3.6-.6.91-.71.5,0,.71.2.71.5Zm-19.26-.4c.1-.4.1-.81.1-1.21,0-2.02-1.11-3.33-2.42-4.03-.81-.4-1.51-.5-2.22-.5-.4,0-.81,0-1.21.1l-2.42.81c-1.81.6-2.22,2.42-2.52,4.84-.1.81-.2,1.11-.2,1.51v.4c0,.4.1,1.01.2,1.81.2,1.41.71,2.02,1.61,2.42.3.2.6.2,1.01.4.4.1.71.2,1.01.4.71.3,1.31.6,1.92.6.5,0,.91-.2,1.41-.5l.71-.5c1.11-1.01,2.72-4.23,3.02-6.55Zm-7.86,29.84c.1-.4.1-.81.1-1.11,0-1.41-.5-2.32-1.21-2.32s-1.61.6-2.52,1.51l-3.33,3.73c-.81,1.11-2.02,2.82-3.13,3.33-1.01.5-1.71,1.41-2.22,2.42l-.91,1.41c-.4.5-.71,1.11-1.21,1.61-.81.91-1.31,1.61-1.81,2.42l-1.71,2.92c-1.11,1.92-2.22,4.34-2.22,6.45,0,.71.1,1.21.4,1.81.91,2.02,1.31,4.13,3.93,4.34h1.01c1.71,0,3.23-.4,4.64-.91,1.81-.71,3.73-3.23,4.84-4.94,1.01-1.51,1.11-3.43,1.51-5.04.1-.5.2-1.01.4-1.51.5-1.11.6-1.92.6-2.72.1-.81.1-1.71.4-3.02l.5-3.43c.1-1.21.4-2.42.81-3.33.3-.71.81-2.32,1.11-3.63Zm45.77-24.4c-.1,1.41-.81,2.72-1.71,3.93-.6.91-1.31,1.61-2.02,2.22s-1.41,1.11-1.92,1.61c-1.01.91-1.92,2.02-2.92,2.92-1.01,1.01-1.92,1.51-3.02,1.51h-.5c-.3-.1-.6-.1-.91-.1-.6,0-1.11.1-1.61.2-.81.1-1.61.3-2.62.3h-1.31c-.6,0-1.31,0-1.81-.2-.81-.2-1.21-.5-1.41-1.11-.1-.2-.1-.5-.1-.81,0-1.92,1.11-4.84,2.12-5.85.5-.5.81-.81,1.01-.81.3,0,.5.71.6.81.2.3.4.71.71,1.01.71.81,1.61,1.41,3.23,1.41.5,0,1.01.1,1.51.2.6,0,1.21,0,1.61-.2,1.11-.71,1.81-1.61,2.52-2.62.4-.5.5-1.01.5-1.51,0-.91-.5-1.61-.91-2.02-.6-.81-1.92-1.21-2.82-1.21h-.5c-.81,0-1.41.1-2.02.3-.4,0-1.21.2-1.51.2l-1.51-.3c-.6-.2-1.21-.5-1.41-.81l-.81-.71-.3-.2c-.5-.5-.81-.91-.81-1.61v-.4c0-.4.1-.81.6-1.31.3-.4.71-.91,1.31-1.51.91-1.11,1.81-2.52,2.42-3.53.71-1.31,2.32-3.43,2.72-3.83l2.22-2.42c.71-.71,1.21-1.11,1.61-1.21.5,0,.71,0,.81.1l1.01,1.61c.4.81.6,1.31.6,1.92,0,.4,0,.71-.2,1.21-.2.6-.6,1.01-1.01,1.41-.4.5-1.01,1.21-1.11,2.22v.91c0,1.61.6,2.82,3.33,3.23.2.1.4.1.71.1.6,0,1.21-.1,1.92-.1.3,0,.71,0,1.01.1.5.2,1.11.6,1.71,1.61.81,1.31,1.01,2.42,1.01,3.33ZM25.54,354.78h5.11v2.63h-5.11v19.68h-3.01v-19.68h-4.06v-2.63h4.06v-8.36h3.01v8.36Zm20.62-.57c5.4,0,9.07,3.73,9.07,9.89v12.99h-3.06v-12.85c0-4.3-2.72-7.02-6.3-7.02s-7.35,2.1-7.45,7.5v12.37h-3.06v-34.43h3.06v16.14c1.34-3.2,4.97-4.58,7.74-4.58Zm35.07,4.92v-4.35h3.06v22.3h-3.06v-4.63c-1.62,3.06-5.06,5.21-9.03,5.21-6.07,0-11.18-5.11-11.18-11.75s4.92-11.7,11.27-11.7c3.82,0,7.26,1.86,8.93,4.92Zm-8.64,15.62c4.63,0,8.64-3.73,8.64-8.74s-4.2-8.88-8.69-8.88-8.5,4.01-8.5,8.79,3.82,8.84,8.55,8.84Zm23.89-19.96h5.11v2.63h-5.11v19.68h-3.01v-19.68h-4.06v-2.63h4.06v-8.36h3.01v8.36Zm40.58,4.35v-4.35h3.06v22.3h-3.06v-4.63c-1.62,3.06-5.06,5.21-9.03,5.21-6.07,0-11.18-5.11-11.18-11.75s4.92-11.7,11.27-11.7c3.82,0,7.26,1.86,8.93,4.92Zm-8.64,15.62c4.63,0,8.64-3.73,8.64-8.74s-4.2-8.88-8.69-8.88-8.5,4.01-8.5,8.79,3.82,8.84,8.55,8.84Zm29.43-20.54c1.24,0,2.67.24,3.53.67l-.57,2.91c-1.15-.48-2.2-.62-3.01-.62-5.3,0-6.93,6.02-6.93,11.51v8.41h-3.1v-22.3h3.1v5.44c1.1-3.77,3.49-6.02,6.97-6.02Zm27.44,11.65c0,.43-.05.91-.1,1.34h-19.2c.53,4.78,3.87,7.55,8.36,7.55,3.06,0,5.78-1.48,7.26-3.92l2.63,1.15c-1.96,3.58-5.78,5.68-9.98,5.68-6.3,0-11.32-4.73-11.32-11.8s5.01-11.65,11.32-11.65,11.03,4.58,11.03,11.65Zm-19.25-1.29h16.19c-.43-4.63-3.63-7.45-7.98-7.45s-7.59,2.67-8.21,7.45Zm95.98-26.81c0,.81-.81,1.41-2.12,1.61h-.4c-1.11,0-2.82-.3-5.34-.3-.6,0-1.31.1-2.02.1-1.21.1-1.81.2-2.52.2-.5,0-1.01-.1-1.81-.1-.3,0-.6-.1-.91-.1s-.71.1-1.11.1c-.71,0-1.51.1-2.62.2h-2.12c-.71,0-1.51,0-2.12-.1-1.21-.1-2.32-.2-3.33-.2-2.02,0-3.43.4-4.13,1.51l-1.11,1.71c-.4.6-.71,1.31-1.11,2.42-.81,2.12-.91,2.62-2.32,4.64-1.01,1.21-.91,3.13-1.81,4.44-.71,1.11-.91,2.52-1.31,3.73-.71,2.62-1.51,5.24-1.71,8.07-.1.91-.1,1.92-.1,2.82v1.11c0,1.21.2,2.42,1.01,3.23,1.21,1.21,2.82,1.41,3.33,1.51.91.1,1.51.2,2.02.2.3,0,.6-.1.81-.1l1.11-.4c.3-.2.81-.4,1.51-.71,1.01-.5,1.71-1.11,2.32-1.71l1.51-1.41c.71-.81.91-.91,1.51-1.51.1-.2.4-.5.81-.91l1.71-1.81c.3-.4.71-.6,1.01-.6.1,0,.2,0,.3.1.2.2.2.4.2.6,0,.6-.4,1.51-.81,2.12-.4.4-.71.91-.91,1.11-.1.2-.3.5-.81,1.01l-2.12,2.42c-.91.81-1.61,1.71-2.42,2.42l-1.31,1.11c-.6.5-1.01.71-1.71.91l-.91.3c-.71.3-1.61.81-2.92,1.92-.81.71-2.52,1.21-4.84,1.21h-.71c-.81,0-1.51-.1-2.12-.1h-2.22c-.4,0-.5-.1-.81-.2l-.81-.6-1.51-.71c-.81-.3-1.41-1.11-1.41-2.12v-1.01c0-1.01-.1-1.71-.2-2.32-.1-.4-.2-.81-.2-1.21v-.5c.2-.91.2-1.92.4-2.82.2-.91.4-1.51.71-1.92,1.21-1.31,2.32-3.43,2.72-5.24.2-.71.4-1.21.6-1.61.3-.6.6-1.11.81-1.81l.5-2.32c.3-.91.6-1.81,1.01-2.62.6-1.11.91-2.22,1.01-3.13l.2-1.11c0-.4.1-.6.1-.71.4-1.01.6-1.92.71-2.62.1-.6.2-1.31.4-1.81l.71-1.71c0-.2.1-.6.1-.91s-.1-.6-.3-1.01c-.6-.71-1.61-.91-3.02-.91h-1.01c-.3.1-.5.1-.81.1s-.6,0-.91-.1c-.6,0-1.21-.1-1.92-.2h-2.92c-.3,0-.6.1-.91.1-.5,0-1.01-.1-1.61-.3-.91-.2-1.31-.6-1.31-1.21,0-.4.2-.81.5-1.41.2-.4.6-.71,1.21-.81.4-.1.81-.1,1.21-.1h1.61c1.01,0,2.32-.2,3.63-.4.81-.1,1.71-.1,2.32-.1h.71c.5,0,1.11.1,1.71.1,1.61,0,3.53-.2,4.64-1.01,1.01-.6,1.92-1.41,3.02-4.94.3-1.21,1.11-2.22,1.92-3.23.71-.91,1.41-1.51,1.81-2.62.4-1.01,1.11-1.61,1.81-2.12,1.01-.6,2.62-1.11,3.83-1.11.3,0,.71,0,.91.1.81.4,1.31.91,1.31,1.92,0,.3,0,.6-.1,1.01-.2.91-.3,1.81-.91,2.52-.5.5-.81,1.11-1.01,1.71-.2.5-.4,1.01-.5,1.51-.3.71-.5,1.21-.81,1.71-.2.6-.5,1.11-.5,1.81,0,1.81,1.92,2.82,3.33,2.82.71-.1,2.02-.2,3.33-.2.91-.1,1.81-.1,2.52-.1h.71c1.41.2,3.53.5,6.55.6h1.11c.81,0,1.31,0,1.71-.1h.71c.2,0,.5,0,.91.1.91.3,2.22.4,3.43.71,1.11.3,1.61.71,1.71,1.41Zm15.13,29.34c0,.1-.2.6-.4,1.01-.3.4-.6.71-.91,1.21-.4.71-1.01,1.11-1.51,1.71-1.01,1.21-1.61,2.02-2.52,2.62-.5.3-.81.71-1.11,1.11-.4.4-.71.81-1.21,1.21l-3.02,2.12c-.81.5-1.41.81-2.02.91l-3.13,1.01c-.6.1-1.11.2-1.71.2h-.6c-.6,0-1.11-.5-1.51-1.41-.4-.91-.71-2.02-.91-2.62-.5-1.01-.6-2.72-.6-4.64-.1-2.32-.71-4.13-2.72-4.13-1.51.1-2.52.91-3.23,1.81-.71.81-1.21,1.71-1.81,2.32-.4.6-1.01,1.01-1.41,1.61-1.21,1.21-1.41,2.52-1.41,4.13-.1.6-.1,1.11-.1,1.71-.1.71-.1,1.41-.71,1.51-.91.2-2.62.6-4.23.6-1.21,0-2.22-.2-2.72-.81-.2-.2-.4-.4-.5-.6l-.4-.4c.1-.3.3-.5.4-.6.71-.81,1.61-1.61,2.02-2.72.2-.91.81-1.51,1.21-2.22l.4-.81c.3-1.01.91-1.21,1.01-2.42v-.5c0-1.11-.5-1.41-.91-1.41-.2,0-.4,0-.5.1-.4.1-.71.71-1.41,1.31-.3.3-.91.6-1.41.71-.71,0-1.21-.4-1.21-.81,0-.2,0-.3.2-.5l3.83-4.34c.5-.6,1.01-1.21,1.41-1.81l1.01-1.21c1.01-1.21,1.92-4.94,1.92-7.26,0-2.02.1-4.34.3-6.55.2-2.72.6-5.24,1.31-6.76.6-1.51.91-3.23,1.21-4.84.2-1.51.5-2.82,1.01-3.93.4-.6.6-1.01.71-1.41l.2-.91c.1-.3.2-.81,1.01-2.12.81-1.31,1.51-2.92,2.42-4.54.81-1.61,1.71-3.13,2.62-4.23,2.22-2.42,5.55-5.34,7.66-5.55.4,0,.81-.1,1.21-.1,1.71,0,2.72.4,3.23.71.3.1.71.2,1.21.2l1.21.3c.81.2,1.31.6,1.41,1.51.2,1.21.6,2.62.71,4.23v1.01c0,1.21-.1,2.62-.6,4.03l-2.32,5.34c-1.01,2.12-2.12,4.13-3.13,5.75-.91,1.41-2.32,3.13-3.63,4.64l-3.23,3.63c-.81.91-1.41,2.12-1.92,3.13-.6,1.21-1.11,2.02-1.61,2.52-1.92,1.61-3.13,3.13-3.83,5.24-.5,1.11-.91,1.81-1.31,2.52-.5.81-.91,1.51-1.21,2.42-.1.5-.2,1.21-.2,1.71,0,.4.1.81.2,1.11.2.71.71,1.01,1.21,1.01.4,0,.81-.1,1.21-.4,1.51-1.11,2.62-1.61,3.53-1.81,1.01-.2,1.81-.3,2.72-.4,1.61,0,3.02,1.01,3.33,2.42.1.4.2,1.01.2,1.71.1.71.1,1.61.1,2.42l.2,2.82c0,1.01.3,1.81.71,2.22.71.6,1.31.81,2.02.81.5,0,1.11-.1,1.61-.3,1.11-.4,2.02-1.01,2.92-1.61.5-.3,1.01-.6,1.51-1.21.4-.4.91-1.01,1.71-1.61l2.52-2.72c.6-.71,1.21-1.41,1.71-1.71.2-.1.4-.1.5-.1.3,0,.5.2.5.6,0,.3-.1.71-.4,1.11Zm-9.38-41.54c.3-.81.5-1.61.5-2.32,0-1.61-.81-2.92-2.02-3.83-.5-.4-1.01-.6-1.51-.6-.4,0-.81.1-1.21.3-.81.4-1.61,1.11-2.32,1.61-1.92,1.41-3.53,3.93-4.13,6.35-.2.81-.5,1.51-1.01,2.52-.5.91-1.21,2.02-1.81,3.33-.3.71-.5,1.51-.71,2.22l-.5,2.32c-.5,1.61-.91,3.33-1.51,5.04-.5,1.41-.6,2.92-.6,4.44,0,.4,0,.71.1,1.01.1.5.4,1.11,1.11,1.11.2,0,.4-.1.71-.2.91-.6,2.42-2.52,3.63-4.34,1.31-1.81,2.52-3.73,3.02-4.64.3-.3.6-.81,1.01-1.31,1.31-1.61,3.02-3.33,3.93-5.24,1.01-2.32,2.52-5.44,3.33-7.76Zm42.18-13.71c0,.6-.1,1.31-.71,2.02-1.11,1.21-2.12,2.42-3.23,3.13-.6.4-1.31.6-1.92.6-.4,0-.71-.1-1.01-.2-1.01-.4-1.41-1.01-1.51-1.71-.1-.5-.2-1.01-.2-1.51,0-.6,0-1.31-.1-2.02,0-1.31.5-2.42,1.31-3.23.6-.71,1.41-1.21,2.12-1.41.4-.1.71-.2,1.01-.2.71,0,1.31.4,2.32,1.41.91,1.01,1.71,2.02,1.92,3.13Zm-8.27,54.45c0,.3-.4,1.31-1.01,2.22-.4.5-.71.81-1.01,1.31-.4.4-.91.91-1.21,1.31-.2.3-.81,1.01-1.61,1.61-.81.81-1.61,1.81-2.02,2.22-1.21,1.21-2.32,2.02-3.63,2.82-1.01.6-2.22.91-3.43,1.41l-1.01.6c-.6.3-1.21.5-1.92.5h-.4c-1.11,0-2.22-.2-3.73-.3-1.21,0-2.02-.3-2.52-.81l-.5-.4c-.5-.5-.91-.81-1.71-1.11-.81-.3-1.92-1.51-2.12-4.94-.1-.91-.3-1.92-.3-2.82,0-.3.1-.6.1-.91.2-.81.6-1.71,1.61-2.62.91-.81,1.61-2.22,2.42-3.53.4-.81,1.21-2.32,1.92-2.92.71-.6,1.11-1.51,1.61-2.32.5-.71,1.01-1.21,1.81-1.31h.5c1.51,0,2.32.91,3.73,2.42.3.4.5,1.01.5,1.61,0,1.01-.4,2.12-1.01,3.43-.2.4-.5.81-.91,1.31-1.11,1.31-3.02,3.02-3.02,4.84v.4c.4,2.52,1.41,4.94,3.43,4.94s3.63-.5,6.15-2.02c.6-.3,1.61-1.01,2.42-1.71.3-.4.71-.81,1.11-1.11l.6-.6c.2-.1.5-.5.81-.91l2.22-2.42.81-.71c.2-.2.4-.4.81-.4.5,0,.5.6.5.91Zm47.01,1.41l-.71,1.01c-.3.4-.6.71-.91,1.21-.3.3-.71.91-1.21,1.31-.5.4-1.11,1.11-1.61,1.61-1.41,1.61-2.72,2.82-4.34,4.13-1.51,1.41-2.62,2.32-3.63,2.82-.71.3-1.41.5-2.22.5-.6,0-1.31-.1-2.02-.3-1.21-.3-2.32-1.21-2.72-2.22-.71-1.51-1.31-2.52-1.81-3.23-.4-.6-.81-1.21-1.01-2.02-.4-1.31-1.41-2.92-2.72-2.92-.4,0-.91.2-1.41.6-.5.3-1.01.5-1.41.91-.81.6-1.92,1.71-3.23,3.93-.81,1.31-1.41,1.92-1.92,2.42-.4.2-.71.5-1.11.81l-1.31,1.41c-.2.3-.6.4-1.31.5-.81,0-1.71-.1-2.52-.1l-2.02-.2c-.71,0-1.11-.1-1.41-.3-.4-.2-.81-.91-.81-1.92,0-.3,0-.5.1-.81.2-.81.3-1.51.3-2.12,0-.4-.1-.71-.1-1.01-.1-.4-.1-.91-.1-1.31v-.5c.2-.91.3-1.71.3-2.42,0-1.31-.4-2.32-1.41-2.82-.3-.1-.5-.2-.71-.2-.71,0-1.51.5-2.22,1.21-.5.5-.91,1.01-1.31,1.61-.6.6-.6.81-1.41,1.31-.5.3-1.01.5-1.41.5-.71,0-1.11-.4-1.11-.71.1-.4.2-.4.71-.91l1.51-1.61c.1-.3.3-.5,1.11-1.41.4-.5.6-.91.81-1.21.2-.4.4-.71.81-1.21.5-.6.6-1.11.91-1.71.3-.6.6-.91.81-1.11.81-.6,1.31-1.41,1.71-2.12.4-.71.81-1.31,1.41-1.81.81-.71,1.51-1.11,2.32-1.11.2,0,.5,0,.71.1,1.71.4,2.42.91,2.82,1.51.4.71.71,1.81.71,2.72.2,1.81.4,2.52.6,3.02l.2.81c.1.3.1.71.1,1.31,0,1.51.6,3.13,1.51,3.93.3.3.71.5,1.11.5.71,0,1.31-.4,1.92-.71.3-.2.6-.4.91-.5,1.31-.81,2.92-2.22,3.63-3.23,1.31-1.92,1.71-2.32,2.02-2.52.2-.1.4-.2.6-.4.3-.2.5-.5.91-1.01,1.31-1.51,2.52-2.22,3.43-2.72.5-.2,1.01-.4,1.41-.4.81,0,1.61.4,2.12,1.11.3.4.71,1.01,1.01,1.92.2.6.4,1.11.4,1.92,0,.71-.2,1.61-.6,2.82-.5,1.41-.71,2.32-.71,3.13,0,.71.2,1.21.4,1.81,0,.3.1.6.1.91.1.4.2.81.4,1.21.4.81,1.21,1.21,2.42,1.21h.6c1.41-.1,2.92-1.31,4.23-2.32l2.72-2.62c.5-.4.91-.91,1.21-1.31l1.61-1.71c.71-.71,1.21-1.31,1.61-1.31s.71.1.71.6c0,.3-.1.91-.5,1.71Zm37.78-1.61c0,.5-.2,1.11-.81,2.12-.2.2-.81,1.01-1.01,1.41l-5.04,5.14c-1.31,1.41-2.72,2.62-3.23,3.23-.2.4-.5.71-.91,1.11-.5.4-.91.91-1.31,1.31-1.01,1.01-1.92,1.71-2.52,1.81-.71.2-1.41.4-2.12.4s-1.41-.2-2.42-1.11c-1.11-.91-1.51-1.31-2.02-1.61-.4-.2-.81-.3-1.71-.91-.81-.5-1.51-.81-2.12-1.11-.5-.3-1.01-.71-1.61-1.21-.3-.3-.5-.6-.81-.81-.71-.81-1.41-1.51-2.62-1.51s-2.82,1.71-3.73,2.62l-1.01.91c-.71.5-1.31,1.31-2.02,1.92-.6.6-1.21,1.01-1.92,1.01-.5,0-.81.1-1.11.1-.91,0-1.11-.3-1.31-1.31,0-.3,0-.81.2-1.41.1-.6.2-1.31.4-2.02,0-.3.81-1.21.91-1.41,1.01-1.31,1.71-2.52,1.81-3.33,0-.71-.1-1.41-.91-1.41-.1,0-.91.5-1.31.91-.5.3-.91.5-1.51.5h-.4c-.4-.1-.5-.5-.5-.5,0-.81.3-1.11.91-1.71l.81-1.01c.3-.2.5-.5.81-.81l2.32-2.52c1.21-1.31,1.71-3.23,2.02-4.94.2-1.61.2-3.23.4-4.34.4-2.32,1.11-5.44,1.92-6.65.81-1.41,1.61-4.74,1.92-6.35.4-1.81,1.21-4.44,1.92-6.86.3-1.01.71-1.92,1.11-2.62.3-.81.71-1.71.71-2.42.3-2.62,3.53-7.97,4.64-9.48,2.42-3.13,4.74-5.55,6.55-6.15,1.31-.4,2.62-.6,4.44-.6.4,0,2.12,1.21,3.13,3.73l1.21,2.92,1.31,2.72c.2.1.2.6.2,1.31l-.3,2.32c0,.71.2,1.61.2,2.82-.1,1.01-.3,2.22-1.31,3.63-.81,1.31-1.92,2.82-3.02,4.23-1.51,1.92-3.23,3.63-4.64,4.64l-3.53,2.72c-1.01.81-1.92,1.61-2.42,2.42-.2.2-.4.4-.91.6-.5.3-1.11.5-1.71.81-1.31.6-2.82,1.31-3.93,2.82-.81,1.21-1.31,2.72-1.51,4.23-.2,1.31-.3,2.72-.3,3.93,0,.81,0,1.51.1,2.02.1,1.01.81,1.41,1.71,1.41.5,0,1.01-.1,1.51-.3,1.11-.4,2.32-1.31,2.82-1.71l2.52-3.02c1.01-1.31,2.02-2.52,2.72-3.13,1.61-1.11,4.84-2.72,6.15-3.23.5-.1.91-.2,1.21-.2.5,0,.81.2,1.01.5.2.3.4,1.11.4,2.02,0,.81-.2,1.61-.5,2.22-.4.6-1.21,1.41-2.22,2.32-.91.91-2.02,1.71-2.62,2.42-1.31,1.21-3.73,3.23-5.04,4.13-.6.4-1.61,1.01-2.32,1.61-1.01.81-1.71,1.71-1.71,2.32,0,1.51,1.71,3.23,3.63,4.34.4.3.81.5,1.21.6.3.2.71.3.91.5.6.2.91.4,1.21.6.3.4.91.6,1.51.6,1.11,0,2.52-.6,3.73-1.21l3.23-2.22c.91-.6,1.51-1.31,2.52-2.22.4-.3,1.31-1.31,2.32-2.42l2.02-2.12c.5-.5.81-.81,1.11-.81.4,0,.6.4.6.71Zm-10.39-37c.2-.4.2-.91.2-1.41,0-1.11-.3-2.32-.4-2.82-.4-1.41-2.22-4.84-3.43-4.84-1.51,0-2.72,1.61-3.73,2.62l-1.11,1.01c-1.31,1.01-2.32,4.64-3.33,6.35-.5.81-.81,2.22-1.01,3.63-.2,1.11-.5,2.22-.81,3.23-.4,1.11-.71,2.32-.71,3.43,0,1.51.4,2.72,1.61,2.82.81,0,1.41-.4,2.12-.6.71-.2,1.61-.91,2.52-1.71,1.01-.91,2.12-2.12,2.82-3.13.5-.81,1.21-1.51,1.81-2.22.71-.81,1.41-1.71,1.92-3.02.4-1.11,1.01-2.32,1.51-3.33Zm42.76-17.24c0,.6-.1,1.31-.71,2.02-1.11,1.21-2.12,2.42-3.23,3.13-.6.4-1.31.6-1.92.6-.4,0-.71-.1-1.01-.2-1.01-.4-1.41-1.01-1.51-1.71-.1-.5-.2-1.01-.2-1.51,0-.6,0-1.31-.1-2.02,0-1.31.5-2.42,1.31-3.23.6-.71,1.41-1.21,2.12-1.41.4-.1.71-.2,1.01-.2.71,0,1.31.4,2.32,1.41.91,1.01,1.71,2.02,1.92,3.13Zm-8.27,54.45c0,.3-.4,1.31-1.01,2.22-.4.5-.71.81-1.01,1.31-.4.4-.91.91-1.21,1.31-.2.3-.81,1.01-1.61,1.61-.81.81-1.61,1.81-2.02,2.22-1.21,1.21-2.32,2.02-3.63,2.82-1.01.6-2.22.91-3.43,1.41l-1.01.6c-.6.3-1.21.5-1.92.5h-.4c-1.11,0-2.22-.2-3.73-.3-1.21,0-2.02-.3-2.52-.81l-.5-.4c-.5-.5-.91-.81-1.71-1.11s-1.92-1.51-2.12-4.94c-.1-.91-.3-1.92-.3-2.82,0-.3.1-.6.1-.91.2-.81.6-1.71,1.61-2.62.91-.81,1.61-2.22,2.42-3.53.4-.81,1.21-2.32,1.92-2.92.71-.6,1.11-1.51,1.61-2.32.5-.71,1.01-1.21,1.81-1.31h.5c1.51,0,2.32.91,3.73,2.42.3.4.5,1.01.5,1.61,0,1.01-.4,2.12-1.01,3.43-.2.4-.5.81-.91,1.31-1.11,1.31-3.02,3.02-3.02,4.84v.4c.4,2.52,1.41,4.94,3.43,4.94s3.63-.5,6.15-2.02c.6-.3,1.61-1.01,2.42-1.71.3-.4.71-.81,1.11-1.11l.6-.6c.2-.1.5-.5.81-.91l2.22-2.42.81-.71c.2-.2.4-.4.81-.4.5,0,.5.6.5.91Zm47.01,1.41l-.71,1.01c-.3.4-.6.71-.91,1.21-.3.3-.71.91-1.21,1.31-.5.4-1.11,1.11-1.61,1.61-1.41,1.61-2.72,2.82-4.34,4.13-1.51,1.41-2.62,2.32-3.63,2.82-.71.3-1.41.5-2.22.5-.6,0-1.31-.1-2.02-.3-1.21-.3-2.32-1.21-2.72-2.22-.71-1.51-1.31-2.52-1.81-3.23-.4-.6-.81-1.21-1.01-2.02-.4-1.31-1.41-2.92-2.72-2.92-.4,0-.91.2-1.41.6-.5.3-1.01.5-1.41.91-.81.6-1.92,1.71-3.23,3.93-.81,1.31-1.41,1.92-1.92,2.42-.4.2-.71.5-1.11.81l-1.31,1.41c-.2.3-.6.4-1.31.5-.81,0-1.71-.1-2.52-.1l-2.02-.2c-.71,0-1.11-.1-1.41-.3-.4-.2-.81-.91-.81-1.92,0-.3,0-.5.1-.81.2-.81.3-1.51.3-2.12,0-.4-.1-.71-.1-1.01-.1-.4-.1-.91-.1-1.31v-.5c.2-.91.3-1.71.3-2.42,0-1.31-.4-2.32-1.41-2.82-.3-.1-.5-.2-.71-.2-.71,0-1.51.5-2.22,1.21-.5.5-.91,1.01-1.31,1.61-.6.6-.6.81-1.41,1.31-.5.3-1.01.5-1.41.5-.71,0-1.11-.4-1.11-.71.1-.4.2-.4.71-.91l1.51-1.61c.1-.3.3-.5,1.11-1.41.4-.5.6-.91.81-1.21.2-.4.4-.71.81-1.21.5-.6.6-1.11.91-1.71.3-.6.6-.91.81-1.11.81-.6,1.31-1.41,1.71-2.12.4-.71.81-1.31,1.41-1.81.81-.71,1.51-1.11,2.32-1.11.2,0,.5,0,.71.1,1.71.4,2.42.91,2.82,1.51.4.71.71,1.81.71,2.72.2,1.81.4,2.52.6,3.02l.2.81c.1.3.1.71.1,1.31,0,1.51.6,3.13,1.51,3.93.3.3.71.5,1.11.5.71,0,1.31-.4,1.92-.71.3-.2.6-.4.91-.5,1.31-.81,2.92-2.22,3.63-3.23,1.31-1.92,1.71-2.32,2.02-2.52.2-.1.4-.2.6-.4.3-.2.5-.5.91-1.01,1.31-1.51,2.52-2.22,3.43-2.72.5-.2,1.01-.4,1.41-.4.81,0,1.61.4,2.12,1.11.3.4.71,1.01,1.01,1.92.2.6.4,1.11.4,1.92,0,.71-.2,1.61-.6,2.82-.5,1.41-.71,2.32-.71,3.13,0,.71.2,1.21.4,1.81,0,.3.1.6.1.91.1.4.2.81.4,1.21.4.81,1.21,1.21,2.42,1.21h.6c1.41-.1,2.92-1.31,4.23-2.32l2.72-2.62c.5-.4.91-.91,1.21-1.31l1.61-1.71c.71-.71,1.21-1.31,1.61-1.31s.71.1.71.6c0,.3-.1.91-.5,1.71Zm34.25-1.81c0,.5-.1,1.01-.6,1.81-.1.3-.5.91-1.01,1.51,0,.1-.1.2-.3.4l-1.41,1.61c-.4.6-.91,1.01-1.51,1.51l-.6.71c-.71.81-1.21,1.21-1.71,1.61-.5.5-1.11.81-1.71,1.21-1.21.91-2.32,1.81-4.13,3.43-.81.81-1.21,1.01-1.71,1.51-.6.5-1.21,1.21-2.52,2.82l-.71.81c-.3.2-.71.6-1.01,1.01-.71.71-1.31,1.81-1.51,3.53-.3,2.32-1.41,5.34-1.71,7.76-.3,2.32-1.61,6.76-2.02,10.39-.2,1.71-.3,4.64-.71,7.56-.3,2.72-.81,5.14-1.71,6.25-1.21,1.41-2.02,2.62-2.72,3.73-.71,1.01-1.11,1.51-1.51,1.71-.6.3-1.71.91-2.92,1.41-1.11.4-2.12.81-3.02.81-1.31-.1-2.82-.1-4.23-.1-1.41-.1-2.72-.1-3.53-.3-1.71-.3-2.72-2.32-4.54-2.52-.91-.1-3.83-2.72-3.83-6.55,0-.4,0-.81.1-1.21.4-2.32,1.01-3.63,1.61-4.74l.91-1.71c.3-.6.5-1.21.71-2.02.71-2.72,3.13-5.65,4.54-7.06,2.12-1.92,4.23-3.83,6.15-6.05,1.01-1.21,2.22-2.72,3.43-4.03,1.11-1.41,2.12-2.52,2.72-3.13,1.71-1.61,3.23-2.92,4.74-4.23.71-.6,1.71-1.21,2.22-2.12.6-1.11.6-3.23.6-4.44,0-.81-.3-1.92-1.21-1.92-.3,0-.81.1-1.31.5-.4.3-1.01.5-1.71.5-.6,0-1.41-.1-2.42-.4-.6-.2-1.11-.3-1.41-.3l-.91-.3c-.3-.2-.71-.4-1.31-1.31-1.01-1.31-1.81-2.92-1.81-4.64,0-.4.1-.91.2-1.31.3-1.21.4-2.22.71-3.23.2-1.01.6-2.12,1.51-3.33.91-1.31,1.92-2.12,2.92-2.92,1.11-.81,2.22-1.41,3.23-2.22,1.92-1.61,5.14-3.73,7.76-3.73s4.74,1.11,5.44,2.32c.5.81,1.01,1.31,1.71,1.92.5.4.81.71,1.11,1.41.4.71.6,1.81.6,2.92,0,.81-.1,1.61-.4,2.22-.5,1.21-.91,3.13-1.21,4.64-.1.91-1.51,3.83-1.71,4.13-.5.91-.81,1.61-.81,2.02,0,.5.3.71.81.71.4,0,1.11-.2,1.71-.3,1.11-.4,3.13-1.92,3.83-2.42l1.21-.91c.6-.4,1.21-.81,1.71-1.31.3-.4.71-.71,1.21-1.11s.91-.91,1.41-1.41l1.51-1.71c.2-.3.81-.91,1.21-1.21.3-.3.6-.6.91-.71.5,0,.71.2.71.5Zm-19.26-.4c.1-.4.1-.81.1-1.21,0-2.02-1.11-3.33-2.42-4.03-.81-.4-1.51-.5-2.22-.5-.4,0-.81,0-1.21.1l-2.42.81c-1.81.6-2.22,2.42-2.52,4.84-.1.81-.2,1.11-.2,1.51v.4c0,.4.1,1.01.2,1.81.2,1.41.71,2.02,1.61,2.42.3.2.6.2,1.01.4.4.1.71.2,1.01.4.71.3,1.31.6,1.92.6.5,0,.91-.2,1.41-.5l.71-.5c1.11-1.01,2.72-4.23,3.02-6.55Zm-7.86,29.84c.1-.4.1-.81.1-1.11,0-1.41-.5-2.32-1.21-2.32s-1.61.6-2.52,1.51l-3.33,3.73c-.81,1.11-2.02,2.82-3.13,3.33-1.01.5-1.71,1.41-2.22,2.42l-.91,1.41c-.4.5-.71,1.11-1.21,1.61-.81.91-1.31,1.61-1.81,2.42l-1.71,2.92c-1.11,1.92-2.22,4.34-2.22,6.45,0,.71.1,1.21.4,1.81.91,2.02,1.31,4.13,3.93,4.34h1.01c1.71,0,3.23-.4,4.64-.91,1.81-.71,3.73-3.23,4.84-4.94,1.01-1.51,1.11-3.43,1.51-5.04.1-.5.2-1.01.4-1.51.5-1.11.6-1.92.6-2.72.1-.81.1-1.71.4-3.02l.5-3.43c.1-1.21.4-2.42.81-3.33.3-.71.81-2.32,1.11-3.63Z"/>
</svg>